M48
METRIC,LZ,000.000
;FILE_FORMAT=3:3
;TYPE=PLATED
;Layer: PTH_Through
;EasyEDA v6.5.51, 2026-08-01 21:54:34
;bf9654bf3ab140a8a438daaae0dfc385,572ffd485b9a42f4b5fb8ca6a2840e3c,10
;Gerber Generator version 0.2
;Holesize 1 = 0.310 mm
T01C0.310
;Holesize 2 = 0.701 mm
T02C0.701
;Holesize 3 = 0.850 mm
T03C0.850
;Holesize 4 = 0.901 mm
T04C0.901
;Holesize 5 = 1.524 mm
T05C1.524
;Holesize 6 = 1.600 mm
T06C1.600
;Holesize 7 = 1.701 mm
T07C1.701
%
G05
G90
T01
X032766Y036449
X083439Y026035
X063119Y034163
X077896Y021590
X042926Y038735
X017300Y055372
X081538Y052268
T02
X019212Y016112
X019142Y014114
X043037Y012319
X041037Y012319
T03
X040386Y033401
X040386Y032131
X040386Y030861
T04
X023495Y002199
X023495Y007199
X042799Y019471
X042799Y024471
T05
X021324Y042642
X007124Y048641
X009124Y054641
X009124Y042641
X021324Y054640
T06
X016637Y005588
X011557Y005588
T07
X019685Y030226
X014605Y030226
X009525Y030226
M30
