G04 Layer: TopLayer*
G04 EasyEDA v6.5.51, 2026-08-01 21:54:34*
G04 bf9654bf3ab140a8a438daaae0dfc385,572ffd485b9a42f4b5fb8ca6a2840e3c,10*
G04 Gerber Generator version 0.2*
G04 Scale: 100 percent, Rotated: No, Reflected: No *
G04 Dimensions in millimeters *
G04 leading zeros omitted , absolute positions ,4 integer and 5 decimal *
%FSLAX45Y45*%
%MOMM*%

%AMMACRO1*21,1,$1,$2,0,0,$3*%
%ADD10C,0.2500*%
%ADD11C,1.5000*%
%ADD12C,0.7000*%
%ADD13R,2.0000X2.4000*%
%ADD14MACRO1,1.701X1.2075X90.0000*%
%ADD15MACRO1,1.701X1.2075X0.0000*%
%ADD16R,1.7010X1.2075*%
%ADD17R,1.7010X1.0000*%
%ADD18R,1.0000X1.1000*%
%ADD19R,0.0132X1.1000*%
%ADD20R,2.5000X1.1000*%
%ADD21MACRO1,3.6X2.34X90.0000*%
%ADD22R,1.8000X2.0000*%
%ADD23MACRO1,0.95X2.1X-178.9996*%
%ADD24MACRO1,1X2.1X-179.0001*%
%ADD25MACRO1,0.95X2.1X-179.0011*%
%ADD26MACRO1,2.1X0.95X-178.9999*%
%ADD27MACRO1,2.1X0.95X-179.0000*%
%ADD28MACRO1,2.1X0.95X-179.0006*%
%ADD29MACRO1,5X5X-89.0002*%
%ADD30C,1.1000*%
%ADD31C,1.0000*%
%ADD32C,1.5240*%
%ADD33C,2.6000*%
%ADD34R,1.5000X1.0700*%
%ADD35O,1.499997X1.07*%
%ADD36C,2.7940*%
%ADD37C,2.5000*%
%ADD38R,2.5000X2.5000*%
%ADD39C,0.6200*%

%LPD*%
G36*
X7301738Y4493971D02*
G01*
X7297775Y4494580D01*
X7294372Y4496714D01*
X7292035Y4500016D01*
X7291171Y4503928D01*
X7290511Y4542028D01*
X7289698Y4548327D01*
X7287107Y4555083D01*
X7286447Y4558538D01*
X7286955Y4562043D01*
X7289342Y4568901D01*
X7289952Y4575200D01*
X7288275Y4669028D01*
X7287463Y4675276D01*
X7284872Y4682083D01*
X7284212Y4685538D01*
X7284770Y4688992D01*
X7287107Y4695901D01*
X7287717Y4702149D01*
X7286091Y4796028D01*
X7285278Y4802276D01*
X7282637Y4809083D01*
X7281976Y4812538D01*
X7282535Y4815992D01*
X7284923Y4822850D01*
X7285481Y4829149D01*
X7283856Y4922977D01*
X7283043Y4929225D01*
X7280452Y4936032D01*
X7279792Y4939487D01*
X7280300Y4942992D01*
X7282688Y4949850D01*
X7283297Y4956149D01*
X7281621Y5049977D01*
X7280808Y5056225D01*
X7278217Y5063032D01*
X7277557Y5066487D01*
X7278116Y5069941D01*
X7280452Y5076850D01*
X7281062Y5083098D01*
X7279386Y5176977D01*
X7278573Y5183225D01*
X7275982Y5190032D01*
X7275322Y5193436D01*
X7275880Y5196941D01*
X7278217Y5203799D01*
X7278827Y5210098D01*
X7277201Y5303926D01*
X7276388Y5310174D01*
X7273798Y5316982D01*
X7273086Y5320436D01*
X7273645Y5323890D01*
X7276033Y5330799D01*
X7276592Y5337048D01*
X7274966Y5430926D01*
X7274153Y5437174D01*
X7271562Y5443982D01*
X7270902Y5447436D01*
X7271461Y5450890D01*
X7273798Y5457799D01*
X7274407Y5464048D01*
X7272731Y5557875D01*
X7272121Y5562600D01*
X7272477Y5566867D01*
X7274559Y5570626D01*
X7278014Y5573166D01*
X7282230Y5574080D01*
X8409635Y5574080D01*
X8413496Y5573318D01*
X8416798Y5571083D01*
X8419033Y5567832D01*
X8419795Y5563920D01*
X8419795Y5515457D01*
X8419084Y5511698D01*
X8417001Y5508498D01*
X8413953Y5506262D01*
X8410244Y5505297D01*
X8406434Y5505805D01*
X8404656Y5506364D01*
X8398306Y5506974D01*
X8280247Y5504942D01*
X8282787Y5360416D01*
X8409432Y5362600D01*
X8413394Y5361889D01*
X8416747Y5359704D01*
X8418982Y5356352D01*
X8419795Y5352440D01*
X8419795Y5110022D01*
X8419033Y5106162D01*
X8416899Y5102910D01*
X8413648Y5100675D01*
X8409787Y5099862D01*
X8287359Y5097729D01*
X8289899Y4953203D01*
X8407958Y4955235D01*
X8412581Y4954930D01*
X8416340Y4952847D01*
X8418880Y4949444D01*
X8419795Y4945227D01*
X8419795Y4534458D01*
X8420862Y4524908D01*
X8420404Y4520641D01*
X8418271Y4516932D01*
X8414766Y4514443D01*
X8410549Y4513630D01*
X7370572Y4536389D01*
X7360259Y4535373D01*
X7350556Y4532782D01*
X7341412Y4528616D01*
X7333030Y4523028D01*
X7325461Y4515815D01*
X7308900Y4497324D01*
X7305649Y4494936D01*
G37*

%LPC*%
G36*
X7909153Y4946548D02*
G01*
X8027212Y4948631D01*
X8024723Y5093157D01*
X7880197Y5090617D01*
X7882229Y4972558D01*
X7883042Y4966258D01*
X7885074Y4960823D01*
X7888224Y4955997D01*
X7892389Y4951984D01*
X7897368Y4948986D01*
X7902854Y4947158D01*
G37*
G36*
X7875574Y5353304D02*
G01*
X8020151Y5355793D01*
X8017611Y5500319D01*
X7899552Y5498287D01*
X7893253Y5497474D01*
X7887817Y5495442D01*
X7882940Y5492292D01*
X7878927Y5488127D01*
X7875930Y5483199D01*
X7874152Y5477662D01*
X7873542Y5471363D01*
G37*

%LPD*%
G36*
X736092Y25908D02*
G01*
X732180Y26670D01*
X728878Y28905D01*
X726694Y32156D01*
X725932Y36068D01*
X725932Y3081934D01*
X726694Y3085846D01*
X728878Y3089148D01*
X732180Y3091332D01*
X736092Y3092094D01*
X739952Y3091332D01*
X743254Y3089148D01*
X798626Y3033776D01*
X800811Y3030474D01*
X801573Y3026613D01*
X801573Y2898190D01*
X802284Y2891840D01*
X804214Y2886405D01*
X807313Y2881477D01*
X811377Y2877413D01*
X816305Y2874314D01*
X821740Y2872384D01*
X828090Y2871673D01*
X1076909Y2871673D01*
X1083259Y2872384D01*
X1088694Y2874314D01*
X1093622Y2877413D01*
X1097686Y2881477D01*
X1100785Y2886405D01*
X1102715Y2891840D01*
X1103426Y2898190D01*
X1103426Y3147009D01*
X1102715Y3153359D01*
X1100785Y3158794D01*
X1097686Y3163722D01*
X1093622Y3167786D01*
X1088694Y3170885D01*
X1083259Y3172815D01*
X1076909Y3173526D01*
X948486Y3173526D01*
X944626Y3174288D01*
X941324Y3176473D01*
X809091Y3308756D01*
X807212Y3311296D01*
X806246Y3314242D01*
X726033Y3801059D01*
X725932Y3837686D01*
X754380Y4170375D01*
X755599Y4174337D01*
X758291Y4177537D01*
X762000Y4179366D01*
X766165Y4179519D01*
X770026Y4178046D01*
X772972Y4175099D01*
X779475Y4165346D01*
X790702Y4151782D01*
X803351Y4139488D01*
X817219Y4128617D01*
X832154Y4119270D01*
X848004Y4111548D01*
X864616Y4105554D01*
X881735Y4101388D01*
X899210Y4099051D01*
X916787Y4098544D01*
X934364Y4099966D01*
X951687Y4103217D01*
X968552Y4108348D01*
X984808Y4115155D01*
X1000252Y4123740D01*
X1014679Y4133850D01*
X1027937Y4145483D01*
X1039876Y4158437D01*
X1050391Y4172559D01*
X1059332Y4187748D01*
X1066647Y4203801D01*
X1072184Y4220514D01*
X1075893Y4237736D01*
X1077772Y4255312D01*
X1077772Y4272889D01*
X1075893Y4290415D01*
X1072184Y4307687D01*
X1066647Y4324400D01*
X1059332Y4340453D01*
X1050391Y4355642D01*
X1039876Y4369765D01*
X1027937Y4382719D01*
X1014679Y4394352D01*
X1000252Y4404461D01*
X984808Y4412996D01*
X968552Y4419854D01*
X951687Y4424984D01*
X934364Y4428236D01*
X916787Y4429658D01*
X899210Y4429150D01*
X881735Y4426813D01*
X864616Y4422648D01*
X848004Y4416653D01*
X832154Y4408932D01*
X817219Y4399584D01*
X803351Y4388713D01*
X790600Y4376267D01*
X787247Y4373626D01*
X783132Y4372610D01*
X778916Y4373321D01*
X775411Y4375759D01*
X773176Y4379366D01*
X772668Y4383633D01*
X801420Y4720132D01*
X802741Y4724298D01*
X805738Y4727549D01*
X814679Y4733848D01*
X827938Y4745482D01*
X839876Y4758436D01*
X850392Y4772558D01*
X859332Y4787747D01*
X866597Y4803800D01*
X872134Y4820513D01*
X875893Y4837734D01*
X877773Y4855311D01*
X877773Y4872888D01*
X875893Y4890414D01*
X872134Y4907686D01*
X866597Y4924399D01*
X859332Y4940452D01*
X850392Y4955641D01*
X839876Y4969764D01*
X827938Y4982718D01*
X814679Y4994351D01*
X800252Y5004460D01*
X784809Y5012994D01*
X768553Y5019852D01*
X751687Y5024983D01*
X734161Y5028285D01*
X730910Y5029504D01*
X728268Y5031740D01*
X726490Y5034788D01*
X725932Y5038242D01*
X725932Y5563920D01*
X726694Y5567832D01*
X728878Y5571083D01*
X732180Y5573318D01*
X736092Y5574080D01*
X767994Y5574080D01*
X772261Y5573166D01*
X775716Y5570524D01*
X777748Y5566714D01*
X778052Y5562346D01*
X776478Y5558282D01*
X769721Y5548172D01*
X761593Y5532526D01*
X755192Y5516118D01*
X750570Y5499100D01*
X747725Y5481675D01*
X746810Y5464098D01*
X747725Y5446522D01*
X750570Y5429097D01*
X755192Y5412079D01*
X761593Y5395671D01*
X769721Y5380024D01*
X779475Y5365343D01*
X790702Y5351780D01*
X803351Y5339486D01*
X817219Y5328615D01*
X832154Y5319268D01*
X848004Y5311546D01*
X864616Y5305552D01*
X881735Y5301386D01*
X899210Y5299049D01*
X916787Y5298541D01*
X934364Y5299964D01*
X951687Y5303215D01*
X968552Y5308346D01*
X984808Y5315153D01*
X1000252Y5323738D01*
X1014679Y5333847D01*
X1027937Y5345480D01*
X1039876Y5358434D01*
X1050391Y5372557D01*
X1059332Y5387746D01*
X1066647Y5403799D01*
X1072184Y5420512D01*
X1075893Y5437733D01*
X1077772Y5455310D01*
X1077772Y5466130D01*
X1078534Y5470042D01*
X1080719Y5473293D01*
X1084021Y5475528D01*
X1087932Y5476290D01*
X1729587Y5476290D01*
X1740001Y5477154D01*
X1749755Y5479643D01*
X1758950Y5483656D01*
X1767382Y5489143D01*
X1774799Y5495950D01*
X1780946Y5503926D01*
X1785721Y5512765D01*
X1789023Y5522264D01*
X1790649Y5532170D01*
X1790649Y5542229D01*
X1789023Y5552135D01*
X1786077Y5560618D01*
X1785569Y5564428D01*
X1786483Y5568137D01*
X1788718Y5571286D01*
X1791919Y5573369D01*
X1795729Y5574080D01*
X1988007Y5574080D01*
X1992274Y5573166D01*
X1995728Y5570524D01*
X1997811Y5566714D01*
X1998065Y5562346D01*
X1996490Y5558282D01*
X1989734Y5548122D01*
X1981606Y5532475D01*
X1975205Y5516067D01*
X1970532Y5499049D01*
X1967738Y5481624D01*
X1966823Y5464048D01*
X1967738Y5446471D01*
X1970532Y5429046D01*
X1975205Y5412028D01*
X1981606Y5395620D01*
X1989734Y5379974D01*
X1999488Y5365292D01*
X2010714Y5351729D01*
X2023364Y5339435D01*
X2027631Y5336082D01*
X2029714Y5333847D01*
X2031034Y5331104D01*
X2031492Y5328107D01*
X2031492Y5264505D01*
X2030730Y5260644D01*
X2028545Y5257342D01*
X1554480Y4783277D01*
X1545539Y4773117D01*
X1538224Y4762144D01*
X1532382Y4750308D01*
X1528165Y4737811D01*
X1525574Y4724857D01*
X1524711Y4711344D01*
X1524711Y3233724D01*
X1523898Y3229813D01*
X1521714Y3226511D01*
X1471472Y3176270D01*
X1467916Y3173984D01*
X1463700Y3173323D01*
X1460500Y3173476D01*
X1443583Y3172561D01*
X1426921Y3169716D01*
X1410665Y3165043D01*
X1395018Y3158540D01*
X1380236Y3150362D01*
X1366418Y3140557D01*
X1353820Y3129280D01*
X1342542Y3116681D01*
X1332738Y3102864D01*
X1324559Y3088081D01*
X1318056Y3072434D01*
X1313383Y3056178D01*
X1310538Y3039516D01*
X1309624Y3022600D01*
X1310538Y3005683D01*
X1313383Y2989021D01*
X1318056Y2972765D01*
X1324559Y2957118D01*
X1332738Y2942336D01*
X1342542Y2928518D01*
X1353820Y2915920D01*
X1366418Y2904642D01*
X1380236Y2894838D01*
X1395018Y2886659D01*
X1410665Y2880156D01*
X1426921Y2875483D01*
X1443583Y2872638D01*
X1460500Y2871724D01*
X1477416Y2872638D01*
X1494078Y2875483D01*
X1510334Y2880156D01*
X1525981Y2886659D01*
X1540764Y2894838D01*
X1554581Y2904642D01*
X1567180Y2915920D01*
X1578457Y2928518D01*
X1588262Y2942336D01*
X1596440Y2957118D01*
X1602943Y2972765D01*
X1607616Y2989021D01*
X1610461Y3005683D01*
X1611376Y3022600D01*
X1611223Y3025800D01*
X1611884Y3030016D01*
X1614170Y3033572D01*
X1696720Y3116122D01*
X1705660Y3126282D01*
X1712975Y3137255D01*
X1718818Y3149092D01*
X1723034Y3161588D01*
X1725625Y3174542D01*
X1726488Y3188055D01*
X1726488Y4665675D01*
X1727301Y4669586D01*
X1729486Y4672888D01*
X2203500Y5146903D01*
X2212441Y5157114D01*
X2219756Y5168087D01*
X2225598Y5179923D01*
X2229866Y5192369D01*
X2232406Y5205323D01*
X2233320Y5218836D01*
X2233320Y5328005D01*
X2234234Y5332222D01*
X2236774Y5335676D01*
X2247900Y5345430D01*
X2259888Y5358384D01*
X2270404Y5372506D01*
X2279345Y5387695D01*
X2286609Y5403748D01*
X2292146Y5420461D01*
X2295906Y5437682D01*
X2297734Y5455259D01*
X2297734Y5472836D01*
X2295906Y5490362D01*
X2292146Y5507634D01*
X2286609Y5524347D01*
X2279345Y5540400D01*
X2270404Y5555589D01*
X2268728Y5557875D01*
X2266899Y5561939D01*
X2267000Y5566359D01*
X2268982Y5570372D01*
X2272538Y5573115D01*
X2276856Y5574080D01*
X2626664Y5574080D01*
X2630678Y5573268D01*
X2634030Y5570931D01*
X2636164Y5567527D01*
X2636824Y5563514D01*
X2632710Y5549087D01*
X2631541Y5539079D01*
X2632100Y5529021D01*
X2634234Y5519216D01*
X2637993Y5509920D01*
X2643225Y5501335D01*
X2649829Y5493715D01*
X2657856Y5487009D01*
X2704642Y5454396D01*
X2706928Y5452110D01*
X2708452Y5449265D01*
X2708960Y5446064D01*
X2708960Y3826357D01*
X2708198Y3822496D01*
X2705963Y3819194D01*
X2702712Y3816959D01*
X2698800Y3816197D01*
X2670454Y3816197D01*
X2664155Y3815486D01*
X2658668Y3813556D01*
X2653792Y3810508D01*
X2649677Y3806393D01*
X2646629Y3801516D01*
X2644698Y3796029D01*
X2643987Y3789730D01*
X2643987Y3550869D01*
X2644698Y3544519D01*
X2646629Y3539083D01*
X2649677Y3534156D01*
X2653792Y3530092D01*
X2658668Y3526993D01*
X2664155Y3525113D01*
X2670454Y3524402D01*
X2694635Y3524402D01*
X2698597Y3523589D01*
X2701899Y3521303D01*
X2704084Y3517900D01*
X2704795Y3513937D01*
X2670556Y2233828D01*
X2669997Y2230780D01*
X2668574Y2228037D01*
X2666339Y2225852D01*
X1930704Y1693976D01*
X1928063Y1692605D01*
X1925116Y1692046D01*
X1912213Y1691639D01*
X1900580Y1689455D01*
X1889455Y1685645D01*
X1878939Y1680210D01*
X1869338Y1673301D01*
X1867611Y1671624D01*
X1864614Y1669643D01*
X1861108Y1668780D01*
X1503832Y1647952D01*
X1497736Y1646885D01*
X1494028Y1645869D01*
X1488135Y1643837D01*
X1484630Y1642262D01*
X1479194Y1639265D01*
X1475994Y1637131D01*
X1471117Y1633270D01*
X1112875Y1275181D01*
X1107490Y1269136D01*
X1102055Y1260703D01*
X1101090Y1258824D01*
X1097381Y1249476D01*
X1095603Y1241704D01*
X1095298Y1239621D01*
X1094790Y1231595D01*
X1094790Y708660D01*
X1094130Y705002D01*
X1092149Y701852D01*
X1089202Y699617D01*
X1077772Y693826D01*
X1063396Y684428D01*
X1050137Y673506D01*
X1038148Y661162D01*
X1027582Y647649D01*
X1018590Y633018D01*
X1011275Y617474D01*
X1005687Y601218D01*
X1001928Y584454D01*
X1000048Y567385D01*
X1000048Y550214D01*
X1001928Y533146D01*
X1005687Y516382D01*
X1011275Y500126D01*
X1018590Y484581D01*
X1027582Y469950D01*
X1038148Y456438D01*
X1050137Y444093D01*
X1063396Y433171D01*
X1077772Y423773D01*
X1093063Y416051D01*
X1109167Y410006D01*
X1125829Y405790D01*
X1142847Y403453D01*
X1160018Y402945D01*
X1177137Y404368D01*
X1193952Y407670D01*
X1210360Y412800D01*
X1226108Y419709D01*
X1240942Y428294D01*
X1254810Y438454D01*
X1267460Y450088D01*
X1278737Y463042D01*
X1288491Y477164D01*
X1296670Y492251D01*
X1303121Y508203D01*
X1307795Y524713D01*
X1310640Y541629D01*
X1311605Y558800D01*
X1310640Y575970D01*
X1307795Y592886D01*
X1303121Y609396D01*
X1296670Y625348D01*
X1288491Y640435D01*
X1278737Y654558D01*
X1267460Y667512D01*
X1254810Y679145D01*
X1240942Y689305D01*
X1226108Y697890D01*
X1222705Y699363D01*
X1219504Y701598D01*
X1217371Y704850D01*
X1216609Y708710D01*
X1216609Y1202486D01*
X1217371Y1206347D01*
X1219606Y1209649D01*
X1535226Y1525320D01*
X1538274Y1527403D01*
X1541830Y1528267D01*
X1868220Y1547164D01*
X1871624Y1546809D01*
X1874723Y1545285D01*
X1879193Y1542135D01*
X1889658Y1536750D01*
X1900834Y1532940D01*
X1913026Y1530705D01*
X1915922Y1529740D01*
X1918360Y1527911D01*
X1947875Y1498447D01*
X1950161Y1494993D01*
X1950872Y1490878D01*
X1949196Y1443990D01*
X2000300Y1442212D01*
X2004009Y1441399D01*
X2007107Y1439265D01*
X2093620Y1352854D01*
X2099665Y1347520D01*
X2101392Y1346250D01*
X2109978Y1341069D01*
X2119376Y1337411D01*
X2127097Y1335633D01*
X2129180Y1335328D01*
X2137206Y1334820D01*
X2504795Y1334820D01*
X2508148Y1334262D01*
X2511145Y1332585D01*
X2513380Y1330045D01*
X2516886Y1324508D01*
X2521000Y1320393D01*
X2525877Y1317294D01*
X2531364Y1315415D01*
X2537663Y1314704D01*
X2786532Y1314704D01*
X2792831Y1315415D01*
X2798318Y1317294D01*
X2803194Y1320393D01*
X2807309Y1324508D01*
X2810408Y1329385D01*
X2812288Y1334871D01*
X2812999Y1341170D01*
X2812999Y1450035D01*
X2812288Y1456334D01*
X2810408Y1461820D01*
X2807309Y1466697D01*
X2803194Y1470812D01*
X2798318Y1473860D01*
X2792831Y1475790D01*
X2786532Y1476502D01*
X2537663Y1476502D01*
X2531364Y1475790D01*
X2525877Y1473860D01*
X2521000Y1470812D01*
X2516886Y1466697D01*
X2513533Y1461414D01*
X2511298Y1458874D01*
X2508300Y1457198D01*
X2504948Y1456639D01*
X2166315Y1456639D01*
X2162454Y1457401D01*
X2159152Y1459585D01*
X2022856Y1595729D01*
X2020468Y1599438D01*
X2019909Y1603756D01*
X2021179Y1607921D01*
X2024075Y1611172D01*
X2766009Y2147620D01*
X2770581Y2151227D01*
X2773781Y2154275D01*
X2777591Y2158441D01*
X2780233Y2161997D01*
X2783281Y2166721D01*
X2785364Y2170633D01*
X2787548Y2175814D01*
X2788970Y2180031D01*
X2790291Y2185517D01*
X2790952Y2189886D01*
X2791409Y2195728D01*
X2826664Y3514496D01*
X2827528Y3518306D01*
X2829712Y3521506D01*
X2833014Y3523640D01*
X2836824Y3524402D01*
X2869336Y3524402D01*
X2875635Y3525113D01*
X2881122Y3526993D01*
X2885998Y3530092D01*
X2890113Y3534156D01*
X2893212Y3539083D01*
X2895092Y3544519D01*
X2895803Y3550869D01*
X2895803Y3599230D01*
X2896565Y3603142D01*
X2898800Y3606393D01*
X2902102Y3608628D01*
X2905963Y3609390D01*
X2971393Y3609390D01*
X2981807Y3610254D01*
X2991561Y3612743D01*
X3000756Y3616756D01*
X3009188Y3622243D01*
X3016605Y3629050D01*
X3022752Y3637026D01*
X3027527Y3645865D01*
X3030829Y3655415D01*
X3032353Y3663645D01*
X3102914Y4275226D01*
X3104184Y4279087D01*
X3106826Y4282135D01*
X3110484Y4283913D01*
X3841902Y4472686D01*
X3844442Y4472990D01*
X4733086Y4472990D01*
X4736947Y4472228D01*
X4740249Y4469993D01*
X4876393Y4333849D01*
X4878628Y4330547D01*
X4879390Y4326686D01*
X4879390Y3986174D01*
X4878628Y3982262D01*
X4876393Y3978960D01*
X4873142Y3976776D01*
X4869230Y3976014D01*
X4850892Y3976014D01*
X4844542Y3975303D01*
X4839106Y3973372D01*
X4834178Y3970324D01*
X4830114Y3966210D01*
X4827016Y3961333D01*
X4825085Y3955846D01*
X4824374Y3949547D01*
X4824374Y3750665D01*
X4825085Y3744366D01*
X4827016Y3738879D01*
X4830114Y3734003D01*
X4834178Y3729888D01*
X4839106Y3726789D01*
X4844542Y3724910D01*
X4850892Y3724198D01*
X5029758Y3724198D01*
X5036058Y3724910D01*
X5041493Y3726789D01*
X5046421Y3729888D01*
X5050485Y3734003D01*
X5053584Y3738879D01*
X5055514Y3744366D01*
X5056225Y3750665D01*
X5056225Y3949547D01*
X5055514Y3955846D01*
X5053584Y3961333D01*
X5050485Y3966210D01*
X5046421Y3970324D01*
X5041493Y3973372D01*
X5036058Y3975303D01*
X5029758Y3976014D01*
X5011369Y3976014D01*
X5007457Y3976776D01*
X5004206Y3978960D01*
X5001971Y3982262D01*
X5001209Y3986174D01*
X5001209Y4355795D01*
X5000701Y4363821D01*
X5000396Y4365904D01*
X4998618Y4373676D01*
X4994910Y4383024D01*
X4993944Y4384903D01*
X4988509Y4393336D01*
X4983124Y4399381D01*
X4805781Y4576724D01*
X4799736Y4582109D01*
X4791303Y4587544D01*
X4789424Y4588510D01*
X4780076Y4592218D01*
X4772304Y4593996D01*
X4770221Y4594301D01*
X4762195Y4594809D01*
X3835603Y4594809D01*
X3830065Y4594555D01*
X3825392Y4593996D01*
X3819956Y4592828D01*
X3030270Y4388967D01*
X3023108Y4386275D01*
X3020923Y4385259D01*
X3014319Y4381449D01*
X3012287Y4380026D01*
X3006394Y4375200D01*
X3004667Y4373524D01*
X2999638Y4367733D01*
X2998216Y4365802D01*
X2994202Y4359300D01*
X2990240Y4350054D01*
X2989529Y4347718D01*
X2987852Y4340250D01*
X2918561Y3740200D01*
X2917494Y3736695D01*
X2915208Y3733800D01*
X2912059Y3731869D01*
X2908452Y3731209D01*
X2905963Y3731209D01*
X2902102Y3731971D01*
X2898800Y3734206D01*
X2896565Y3737457D01*
X2895803Y3741369D01*
X2895803Y3789730D01*
X2895092Y3796029D01*
X2893212Y3801516D01*
X2890113Y3806393D01*
X2885998Y3810508D01*
X2881122Y3813556D01*
X2875635Y3815486D01*
X2869336Y3816197D01*
X2840939Y3816197D01*
X2837027Y3816959D01*
X2833776Y3819194D01*
X2831541Y3822496D01*
X2830779Y3826357D01*
X2830779Y5482691D01*
X2829915Y5493105D01*
X2827426Y5502859D01*
X2823413Y5512054D01*
X2817926Y5520486D01*
X2811068Y5527954D01*
X2804464Y5533237D01*
X2772460Y5555589D01*
X2769565Y5558688D01*
X2768193Y5562752D01*
X2768549Y5566968D01*
X2770682Y5570677D01*
X2774086Y5573166D01*
X2778252Y5574080D01*
X7002272Y5574080D01*
X7006031Y5573369D01*
X7009282Y5571337D01*
X7011517Y5568238D01*
X7012431Y5564530D01*
X7011568Y5559653D01*
X7010958Y5553354D01*
X7012635Y5459476D01*
X7013448Y5453227D01*
X7016038Y5446420D01*
X7016699Y5442966D01*
X7016140Y5439511D01*
X7013803Y5432602D01*
X7013194Y5426354D01*
X7014819Y5332526D01*
X7015632Y5326227D01*
X7018223Y5319471D01*
X7018934Y5316016D01*
X7018375Y5312511D01*
X7015988Y5305653D01*
X7015429Y5299354D01*
X7017054Y5205526D01*
X7017867Y5199278D01*
X7020458Y5192471D01*
X7021118Y5189016D01*
X7020559Y5185562D01*
X7018223Y5178653D01*
X7017613Y5172405D01*
X7019290Y5078526D01*
X7020102Y5072278D01*
X7022693Y5065471D01*
X7023353Y5062016D01*
X7022795Y5058562D01*
X7020458Y5051704D01*
X7019848Y5045405D01*
X7021525Y4951577D01*
X7022338Y4945329D01*
X7024928Y4938522D01*
X7025589Y4935067D01*
X7025030Y4931613D01*
X7022693Y4924704D01*
X7022084Y4918405D01*
X7023709Y4824577D01*
X7024522Y4818329D01*
X7027113Y4811522D01*
X7027824Y4808067D01*
X7027265Y4804613D01*
X7024878Y4797704D01*
X7024319Y4791456D01*
X7025944Y4697577D01*
X7026757Y4691329D01*
X7029348Y4684572D01*
X7030008Y4681118D01*
X7029450Y4677613D01*
X7027113Y4670755D01*
X7026503Y4664456D01*
X7028129Y4570628D01*
X7028942Y4564380D01*
X7031583Y4557572D01*
X7032244Y4554118D01*
X7031685Y4550664D01*
X7029348Y4543755D01*
X7028738Y4537506D01*
X7030364Y4443628D01*
X7031177Y4437329D01*
X7033209Y4431893D01*
X7036358Y4427067D01*
X7040524Y4423054D01*
X7045502Y4420057D01*
X7050989Y4418228D01*
X7057288Y4417618D01*
X7217054Y4420412D01*
X7220915Y4419752D01*
X7224217Y4417669D01*
X7226503Y4414469D01*
X7227366Y4410710D01*
X7226808Y4406849D01*
X7224826Y4403496D01*
X6886905Y4026204D01*
X6882688Y4020261D01*
X6881266Y4017873D01*
X6878015Y4011371D01*
X6876999Y4008729D01*
X6874916Y4001770D01*
X6874357Y3999077D01*
X6873443Y3991864D01*
X6873290Y3989070D01*
X6873595Y3981805D01*
X6873951Y3979011D01*
X6875424Y3971899D01*
X6876186Y3969207D01*
X6878828Y3962450D01*
X6880047Y3959910D01*
X6883755Y3953662D01*
X6970522Y3837838D01*
X6972249Y3834180D01*
X6972452Y3830167D01*
X6971030Y3826357D01*
X6937400Y3772560D01*
X6936028Y3770833D01*
X5552592Y2349957D01*
X5549239Y2347722D01*
X5545328Y2346909D01*
X4855413Y2346909D01*
X4851552Y2347671D01*
X4848250Y2349906D01*
X4723892Y2474214D01*
X4721758Y2477363D01*
X4720945Y2481122D01*
X4683709Y3734562D01*
X4683709Y4139946D01*
X4683404Y4145991D01*
X4682896Y4150156D01*
X4681626Y4155897D01*
X4680407Y4159910D01*
X4678273Y4165346D01*
X4676394Y4169156D01*
X4673346Y4174134D01*
X4670907Y4177537D01*
X4667097Y4182008D01*
X4664100Y4184954D01*
X4659579Y4188714D01*
X4656175Y4191152D01*
X4650943Y4194200D01*
X4410049Y4320997D01*
X4406036Y4322927D01*
X4400550Y4325061D01*
X4396486Y4326229D01*
X4390745Y4327398D01*
X4386580Y4327906D01*
X4380738Y4328109D01*
X4376521Y4327906D01*
X4370730Y4327144D01*
X4366615Y4326229D01*
X4361027Y4324553D01*
X4357116Y4322978D01*
X4351832Y4320387D01*
X4348226Y4318203D01*
X4343501Y4314799D01*
X4340301Y4312056D01*
X4336186Y4307890D01*
X4333494Y4304639D01*
X4330090Y4299864D01*
X4327956Y4296257D01*
X4325416Y4290974D01*
X4323943Y4287012D01*
X4322267Y4281424D01*
X4321454Y4277258D01*
X4320743Y4271518D01*
X4320590Y4265879D01*
X4319778Y4262120D01*
X4317593Y4258970D01*
X4273194Y4214571D01*
X4269892Y4212336D01*
X4266031Y4211574D01*
X4195419Y4211574D01*
X4189120Y4210862D01*
X4183634Y4208983D01*
X4178757Y4205884D01*
X4172102Y4198823D01*
X4169105Y4197146D01*
X4165752Y4196588D01*
X4097883Y4196588D01*
X4089857Y4196080D01*
X4087774Y4195775D01*
X4080001Y4193997D01*
X4070654Y4190288D01*
X4068775Y4189323D01*
X4060342Y4183887D01*
X4054297Y4178503D01*
X3944975Y4069181D01*
X3939590Y4063136D01*
X3934155Y4054703D01*
X3933190Y4052824D01*
X3929481Y4043476D01*
X3927703Y4035704D01*
X3927398Y4033621D01*
X3926890Y4025595D01*
X3926890Y3746804D01*
X3927398Y3738778D01*
X3927703Y3736695D01*
X3929481Y3728923D01*
X3933190Y3719576D01*
X3934155Y3717696D01*
X3939590Y3709263D01*
X3944975Y3703218D01*
X4215993Y3432149D01*
X4218228Y3428847D01*
X4218990Y3424986D01*
X4218990Y2518105D01*
X4218228Y2514193D01*
X4215993Y2510942D01*
X4212742Y2508707D01*
X4208830Y2507945D01*
X3784803Y2507945D01*
X3779570Y2507742D01*
X3774592Y2507081D01*
X3769664Y2506065D01*
X3764838Y2504643D01*
X3760114Y2502814D01*
X3755593Y2500579D01*
X3751275Y2498039D01*
X3747211Y2495092D01*
X3743350Y2491841D01*
X3739794Y2488285D01*
X3736543Y2484424D01*
X3733596Y2480360D01*
X3731056Y2476042D01*
X3728821Y2471521D01*
X3726992Y2466797D01*
X3725570Y2461971D01*
X3724554Y2457043D01*
X3723894Y2452065D01*
X3723690Y2446832D01*
X3723690Y2133904D01*
X3724198Y2125878D01*
X3724503Y2123795D01*
X3726281Y2116023D01*
X3729990Y2106676D01*
X3730955Y2104796D01*
X3736390Y2096363D01*
X3741775Y2090318D01*
X4239869Y1592173D01*
X4242104Y1588871D01*
X4242866Y1585010D01*
X4242866Y1280109D01*
X4242409Y1277061D01*
X4241038Y1274267D01*
X4238498Y1270660D01*
X4233316Y1260246D01*
X4229811Y1249172D01*
X4228033Y1237691D01*
X4228033Y1226108D01*
X4229811Y1214628D01*
X4233316Y1203553D01*
X4238498Y1193139D01*
X4241038Y1189532D01*
X4242409Y1186738D01*
X4242866Y1183690D01*
X4242866Y1137869D01*
X4242104Y1133957D01*
X4239869Y1130706D01*
X4236618Y1128471D01*
X4232706Y1127709D01*
X3890213Y1127709D01*
X3886352Y1128471D01*
X3883050Y1130706D01*
X3763162Y1250543D01*
X3755034Y1257046D01*
X3746246Y1261922D01*
X3736746Y1265326D01*
X3726434Y1267155D01*
X3472230Y1291386D01*
X3468928Y1292250D01*
X3234842Y1400302D01*
X3231692Y1402588D01*
X3229610Y1405890D01*
X3228949Y1409750D01*
X3229813Y1413560D01*
X3231997Y1416812D01*
X3235299Y1418945D01*
X3239109Y1419707D01*
X3372510Y1419707D01*
X3378860Y1420418D01*
X3384296Y1422298D01*
X3389223Y1425397D01*
X3393287Y1429512D01*
X3396386Y1434388D01*
X3398316Y1439824D01*
X3399028Y1446174D01*
X3399028Y1805025D01*
X3398316Y1811375D01*
X3396386Y1816811D01*
X3393287Y1821688D01*
X3389223Y1825802D01*
X3384296Y1828901D01*
X3378860Y1830781D01*
X3372510Y1831492D01*
X3139694Y1831492D01*
X3133344Y1830781D01*
X3127908Y1828901D01*
X3122980Y1825802D01*
X3118916Y1821688D01*
X3115818Y1816811D01*
X3113887Y1811375D01*
X3113176Y1805025D01*
X3113176Y1472336D01*
X3112414Y1468374D01*
X3110128Y1465021D01*
X3106674Y1462887D01*
X3102711Y1462176D01*
X3098800Y1463090D01*
X2991459Y1512671D01*
X2989630Y1513738D01*
X2891637Y1587144D01*
X2885389Y1590852D01*
X2743962Y1655318D01*
X2740812Y1657502D01*
X2738729Y1660753D01*
X2738018Y1664563D01*
X2738018Y1680006D01*
X2737307Y1686356D01*
X2735376Y1691792D01*
X2732328Y1696720D01*
X2728214Y1700784D01*
X2723337Y1703882D01*
X2717850Y1705813D01*
X2711551Y1706524D01*
X2612694Y1706524D01*
X2606344Y1705813D01*
X2600909Y1703882D01*
X2595981Y1700784D01*
X2591917Y1696720D01*
X2588818Y1691792D01*
X2586888Y1686356D01*
X2586177Y1680006D01*
X2586177Y1571193D01*
X2586888Y1564843D01*
X2588818Y1559407D01*
X2591917Y1554480D01*
X2595981Y1550416D01*
X2600909Y1547317D01*
X2606344Y1545386D01*
X2612694Y1544675D01*
X2690723Y1544675D01*
X2694889Y1543761D01*
X2825242Y1484477D01*
X2827121Y1483360D01*
X2924657Y1410258D01*
X2931261Y1406347D01*
X3428492Y1176782D01*
X3438296Y1173175D01*
X3449065Y1171244D01*
X3689858Y1148283D01*
X3693261Y1147368D01*
X3696106Y1145336D01*
X3817518Y1023975D01*
X3823563Y1018590D01*
X3831996Y1013155D01*
X3833876Y1012190D01*
X3843223Y1008481D01*
X3850995Y1006703D01*
X3853078Y1006398D01*
X3861104Y1005890D01*
X4303572Y1005890D01*
X4308805Y1006094D01*
X4313783Y1006754D01*
X4318711Y1007770D01*
X4323537Y1009192D01*
X4328261Y1011021D01*
X4332782Y1013256D01*
X4337100Y1015796D01*
X4341164Y1018743D01*
X4345025Y1021994D01*
X4348581Y1025550D01*
X4351832Y1029411D01*
X4354779Y1033475D01*
X4357319Y1037793D01*
X4359554Y1042314D01*
X4361383Y1047038D01*
X4362805Y1051864D01*
X4363821Y1056792D01*
X4364482Y1061770D01*
X4364685Y1067003D01*
X4364685Y1183640D01*
X4365040Y1186332D01*
X4366107Y1188821D01*
X4371695Y1198219D01*
X4376064Y1208989D01*
X4378706Y1220317D01*
X4379569Y1231900D01*
X4378706Y1243482D01*
X4376064Y1254810D01*
X4371695Y1265580D01*
X4366107Y1274978D01*
X4365040Y1277467D01*
X4364685Y1280160D01*
X4364685Y1614119D01*
X4364177Y1622145D01*
X4363872Y1624228D01*
X4362094Y1632000D01*
X4358386Y1641348D01*
X4357420Y1643227D01*
X4351985Y1651660D01*
X4346600Y1657705D01*
X3848506Y2155850D01*
X3846271Y2159152D01*
X3845509Y2163013D01*
X3845509Y2375966D01*
X3846271Y2379878D01*
X3848506Y2383129D01*
X3851757Y2385364D01*
X3855669Y2386126D01*
X4231843Y2386126D01*
X4234891Y2385669D01*
X4237685Y2384298D01*
X4241139Y2381859D01*
X4251553Y2376728D01*
X4262628Y2373223D01*
X4274108Y2371445D01*
X4285691Y2371445D01*
X4297172Y2373223D01*
X4308246Y2376728D01*
X4318660Y2381859D01*
X4328160Y2388565D01*
X4336542Y2396591D01*
X4343603Y2405837D01*
X4349140Y2416048D01*
X4353052Y2426970D01*
X4355287Y2438400D01*
X4355744Y2449982D01*
X4354372Y2461514D01*
X4351324Y2472740D01*
X4346549Y2483358D01*
X4342434Y2489708D01*
X4341215Y2492349D01*
X4340809Y2495194D01*
X4340809Y3454095D01*
X4340301Y3462121D01*
X4339996Y3464204D01*
X4338218Y3471976D01*
X4334510Y3481324D01*
X4333544Y3483203D01*
X4328109Y3491636D01*
X4322724Y3497681D01*
X4051706Y3768750D01*
X4049471Y3772052D01*
X4048709Y3775913D01*
X4048709Y3996486D01*
X4049471Y4000347D01*
X4051706Y4003649D01*
X4119829Y4071772D01*
X4123131Y4074007D01*
X4126992Y4074769D01*
X4165752Y4074769D01*
X4169105Y4074210D01*
X4172102Y4072534D01*
X4174642Y4069587D01*
X4178757Y4065473D01*
X4183634Y4062374D01*
X4189120Y4060494D01*
X4195419Y4059783D01*
X4364380Y4059783D01*
X4370679Y4060494D01*
X4376166Y4062374D01*
X4381042Y4065473D01*
X4385157Y4069587D01*
X4388256Y4074464D01*
X4390136Y4079900D01*
X4390847Y4086250D01*
X4390847Y4155744D01*
X4391609Y4159605D01*
X4393844Y4162907D01*
X4407509Y4176623D01*
X4411116Y4178909D01*
X4415332Y4179570D01*
X4419447Y4178401D01*
X4556455Y4106265D01*
X4559350Y4104030D01*
X4561230Y4100880D01*
X4561890Y4097274D01*
X4561941Y3731920D01*
X4599990Y2449525D01*
X4600498Y2443530D01*
X4601159Y2439365D01*
X4602530Y2433675D01*
X4603902Y2429662D01*
X4606239Y2424277D01*
X4608220Y2420569D01*
X4611370Y2415641D01*
X4613960Y2412339D01*
X4618024Y2407869D01*
X4782718Y2243175D01*
X4788763Y2237790D01*
X4797196Y2232355D01*
X4799076Y2231390D01*
X4808423Y2227681D01*
X4816195Y2225903D01*
X4818278Y2225598D01*
X4826304Y2225090D01*
X5574893Y2225090D01*
X5585307Y2225954D01*
X5595061Y2228443D01*
X5604256Y2232456D01*
X5612739Y2237994D01*
X5619191Y2243734D01*
X7030516Y3693312D01*
X7035139Y3699205D01*
X7101433Y3805275D01*
X7104837Y3812235D01*
X7107885Y3821836D01*
X7108342Y3824122D01*
X7109307Y3831793D01*
X7109409Y3834129D01*
X7109053Y3841851D01*
X7108748Y3844137D01*
X7107174Y3851706D01*
X7106513Y3853942D01*
X7103668Y3861155D01*
X7102652Y3863238D01*
X7098690Y3869893D01*
X7017918Y3977690D01*
X7016343Y3980789D01*
X7015886Y3984244D01*
X7016648Y3987647D01*
X7018477Y3990594D01*
X7226147Y4222394D01*
X7229348Y4224832D01*
X7233259Y4225747D01*
X7237272Y4225137D01*
X7240676Y4223004D01*
X7243013Y4219752D01*
X7243876Y4215790D01*
X7246569Y4061358D01*
X7247381Y4055059D01*
X7250988Y4046423D01*
X7251395Y4043527D01*
X7251395Y3492703D01*
X7251547Y3489299D01*
X7252157Y3484930D01*
X7252868Y3481933D01*
X7254341Y3477768D01*
X7255662Y3474923D01*
X7257897Y3471113D01*
X7259777Y3468573D01*
X7262672Y3465322D01*
X7265212Y3462985D01*
X8256473Y2626969D01*
X8259165Y2623464D01*
X8260130Y2619197D01*
X8260130Y2545080D01*
X8260842Y2538730D01*
X8262721Y2533294D01*
X8265820Y2528366D01*
X8269884Y2524302D01*
X8274812Y2521204D01*
X8280247Y2519324D01*
X8286597Y2518613D01*
X8385454Y2518613D01*
X8391753Y2519324D01*
X8397240Y2521204D01*
X8402116Y2524302D01*
X8406231Y2528366D01*
X8409279Y2533294D01*
X8411210Y2538730D01*
X8411921Y2545080D01*
X8411921Y2653944D01*
X8411210Y2660243D01*
X8409279Y2665730D01*
X8406231Y2670606D01*
X8402116Y2674721D01*
X8397240Y2677769D01*
X8391753Y2679700D01*
X8385454Y2680411D01*
X8316010Y2680411D01*
X8312505Y2681020D01*
X8309457Y2682798D01*
X7331811Y3507282D01*
X7329170Y3510787D01*
X7328204Y3515055D01*
X7328204Y4026306D01*
X7328966Y4030167D01*
X7331100Y4033469D01*
X7334351Y4035653D01*
X7338212Y4036466D01*
X7367320Y4036974D01*
X7373620Y4037787D01*
X7380376Y4040428D01*
X7383830Y4041089D01*
X7387336Y4040530D01*
X7394194Y4038193D01*
X7397496Y4037837D01*
X7401102Y4036822D01*
X7404049Y4034586D01*
X7406030Y4031386D01*
X7406690Y4027728D01*
X7406690Y3912108D01*
X7407503Y3904132D01*
X7409688Y3896918D01*
X7413244Y3890264D01*
X7418019Y3884472D01*
X7423810Y3879697D01*
X7430465Y3876141D01*
X7437628Y3873957D01*
X7445146Y3873246D01*
X7452614Y3873957D01*
X7459776Y3876141D01*
X7466431Y3879697D01*
X7472222Y3884472D01*
X7476998Y3890264D01*
X7480553Y3896918D01*
X7482738Y3904132D01*
X7483551Y3912108D01*
X7483551Y4029049D01*
X7484211Y4032656D01*
X7486091Y4035806D01*
X7489037Y4038041D01*
X7492542Y4039158D01*
X7500670Y4040073D01*
X7507376Y4042613D01*
X7510830Y4043273D01*
X7514285Y4042765D01*
X7521194Y4040378D01*
X7527442Y4039768D01*
X7621320Y4041444D01*
X7627569Y4042257D01*
X7634376Y4044848D01*
X7637830Y4045508D01*
X7641285Y4044950D01*
X7648143Y4042613D01*
X7654442Y4042003D01*
X7748270Y4043629D01*
X7754518Y4044442D01*
X7761325Y4047032D01*
X7764780Y4047744D01*
X7768234Y4047185D01*
X7775143Y4044797D01*
X7781442Y4044238D01*
X7875270Y4045864D01*
X7881518Y4046677D01*
X7888325Y4049268D01*
X7891780Y4049928D01*
X7895234Y4049369D01*
X7902143Y4047032D01*
X7908391Y4046423D01*
X8002270Y4048099D01*
X8008518Y4048912D01*
X8015325Y4051503D01*
X8018729Y4052163D01*
X8022234Y4051604D01*
X8029092Y4049268D01*
X8035391Y4048658D01*
X8129219Y4050284D01*
X8135467Y4051096D01*
X8142274Y4053687D01*
X8145729Y4054398D01*
X8149183Y4053840D01*
X8156092Y4051452D01*
X8162340Y4050893D01*
X8256219Y4052519D01*
X8262467Y4053332D01*
X8269274Y4055922D01*
X8272729Y4056583D01*
X8276183Y4056024D01*
X8283041Y4053687D01*
X8289340Y4053078D01*
X8383168Y4054703D01*
X8389416Y4055516D01*
X8396224Y4058158D01*
X8399678Y4058818D01*
X8403183Y4058259D01*
X8410041Y4055922D01*
X8416340Y4055313D01*
X8510168Y4056938D01*
X8516416Y4057751D01*
X8523224Y4060342D01*
X8526678Y4061002D01*
X8530132Y4060494D01*
X8537041Y4058107D01*
X8543290Y4057497D01*
X8637168Y4059174D01*
X8643416Y4059986D01*
X8650224Y4062577D01*
X8653627Y4063237D01*
X8657132Y4062679D01*
X8663990Y4060342D01*
X8670290Y4059732D01*
X8764117Y4061358D01*
X8770366Y4062171D01*
X8777173Y4064812D01*
X8780627Y4065473D01*
X8784082Y4064914D01*
X8790990Y4062526D01*
X8797239Y4061968D01*
X8891117Y4063593D01*
X8897366Y4064406D01*
X8904173Y4066997D01*
X8907627Y4067657D01*
X8911082Y4067149D01*
X8917990Y4064762D01*
X8924239Y4064152D01*
X8941054Y4064457D01*
X8939834Y4136491D01*
X8926474Y4136288D01*
X8922562Y4136999D01*
X8919260Y4139133D01*
X8916974Y4142384D01*
X8916162Y4146245D01*
X8914434Y4243628D01*
X8915146Y4247540D01*
X8917279Y4250842D01*
X8920581Y4253128D01*
X8924442Y4253941D01*
X8937752Y4254195D01*
X8936482Y4326229D01*
X8919667Y4325924D01*
X8913418Y4325112D01*
X8906611Y4322521D01*
X8903157Y4321860D01*
X8899702Y4322419D01*
X8892794Y4324756D01*
X8886545Y4325366D01*
X8792718Y4323740D01*
X8786418Y4322927D01*
X8779662Y4320336D01*
X8776208Y4319625D01*
X8772702Y4320184D01*
X8765844Y4322572D01*
X8759545Y4323130D01*
X8665718Y4321505D01*
X8659469Y4320692D01*
X8652662Y4318101D01*
X8649208Y4317441D01*
X8645753Y4318000D01*
X8638844Y4320336D01*
X8632596Y4320946D01*
X8538718Y4319320D01*
X8532469Y4318457D01*
X8525662Y4315866D01*
X8522258Y4315206D01*
X8518753Y4315764D01*
X8511895Y4318101D01*
X8505596Y4318711D01*
X8411768Y4317085D01*
X8405520Y4316272D01*
X8398713Y4313682D01*
X8395258Y4313021D01*
X8391804Y4313529D01*
X8384895Y4315917D01*
X8378596Y4316526D01*
X8284768Y4314850D01*
X8278520Y4314037D01*
X8271713Y4311446D01*
X8268258Y4310786D01*
X8264804Y4311345D01*
X8257895Y4313682D01*
X8251647Y4314291D01*
X8157819Y4312666D01*
X8151520Y4311853D01*
X8144764Y4309211D01*
X8141309Y4308551D01*
X8137804Y4309110D01*
X8130946Y4311497D01*
X8124647Y4312056D01*
X8030819Y4310430D01*
X8024571Y4309618D01*
X8017764Y4307027D01*
X8014309Y4306366D01*
X8010855Y4306874D01*
X8003946Y4309262D01*
X7997698Y4309872D01*
X7903819Y4308195D01*
X7897571Y4307382D01*
X7890764Y4304792D01*
X7887309Y4304131D01*
X7883855Y4304690D01*
X7876997Y4307027D01*
X7870698Y4307636D01*
X7776870Y4306011D01*
X7770622Y4305198D01*
X7763814Y4302607D01*
X7760360Y4301896D01*
X7756855Y4302455D01*
X7749997Y4304842D01*
X7743698Y4305401D01*
X7649870Y4303776D01*
X7643622Y4302963D01*
X7636814Y4300372D01*
X7633360Y4299712D01*
X7629906Y4300270D01*
X7622997Y4302607D01*
X7616748Y4303217D01*
X7522870Y4301540D01*
X7516622Y4300728D01*
X7509814Y4298137D01*
X7506411Y4297476D01*
X7502906Y4298035D01*
X7496048Y4300372D01*
X7489748Y4300982D01*
X7395921Y4299356D01*
X7389672Y4298543D01*
X7382865Y4295952D01*
X7379411Y4295292D01*
X7375956Y4295800D01*
X7369048Y4298188D01*
X7362799Y4298746D01*
X7316774Y4297984D01*
X7312914Y4298645D01*
X7309612Y4300728D01*
X7307325Y4303877D01*
X7306411Y4307687D01*
X7307021Y4311548D01*
X7309002Y4314901D01*
X7394651Y4410506D01*
X7398156Y4413046D01*
X7402423Y4413859D01*
X8761272Y4384090D01*
X8770467Y4384598D01*
X8780373Y4386681D01*
X8789720Y4390288D01*
X8798356Y4395470D01*
X8806383Y4402226D01*
X8853322Y4449216D01*
X8858707Y4455261D01*
X8864142Y4463694D01*
X8865108Y4465574D01*
X8868816Y4474921D01*
X8870594Y4482693D01*
X8870899Y4484776D01*
X8871407Y4492802D01*
X8871407Y5563920D01*
X8872169Y5567832D01*
X8874404Y5571083D01*
X8877655Y5573318D01*
X8881567Y5574080D01*
X8963914Y5574080D01*
X8967825Y5573318D01*
X8971076Y5571083D01*
X8973312Y5567832D01*
X8974074Y5563920D01*
X8974074Y3591915D01*
X8973210Y3587750D01*
X8970670Y3584295D01*
X8967012Y3582212D01*
X8962796Y3581806D01*
X8960002Y3582111D01*
X8861145Y3582111D01*
X8854846Y3581400D01*
X8849360Y3579469D01*
X8844483Y3576421D01*
X8840368Y3572306D01*
X8837320Y3567429D01*
X8835390Y3561943D01*
X8834678Y3555644D01*
X8834678Y3446779D01*
X8835390Y3440429D01*
X8837320Y3434994D01*
X8840368Y3430066D01*
X8844483Y3426002D01*
X8849360Y3422904D01*
X8854846Y3421024D01*
X8861145Y3420313D01*
X8960002Y3420313D01*
X8962796Y3420618D01*
X8967012Y3420160D01*
X8970670Y3418078D01*
X8973210Y3414674D01*
X8974074Y3410508D01*
X8974074Y3091891D01*
X8973210Y3087725D01*
X8970670Y3084322D01*
X8967012Y3082239D01*
X8962796Y3081782D01*
X8960002Y3082086D01*
X8861145Y3082086D01*
X8854846Y3081375D01*
X8849360Y3079496D01*
X8844483Y3076397D01*
X8840368Y3072333D01*
X8837320Y3067405D01*
X8835390Y3061970D01*
X8834678Y3055620D01*
X8834678Y2946755D01*
X8835390Y2940456D01*
X8837320Y2934970D01*
X8840368Y2930093D01*
X8844483Y2925978D01*
X8849360Y2922930D01*
X8854846Y2921000D01*
X8861145Y2920288D01*
X8960002Y2920288D01*
X8962796Y2920593D01*
X8967012Y2920187D01*
X8970670Y2918104D01*
X8973210Y2914650D01*
X8974074Y2910484D01*
X8974074Y2690571D01*
X8973312Y2686659D01*
X8971076Y2683408D01*
X8967825Y2681173D01*
X8963914Y2680411D01*
X8886545Y2680411D01*
X8880246Y2679700D01*
X8874760Y2677769D01*
X8869883Y2674721D01*
X8865768Y2670606D01*
X8862720Y2665730D01*
X8860790Y2660243D01*
X8860078Y2653944D01*
X8860078Y2545080D01*
X8860790Y2538730D01*
X8862720Y2533294D01*
X8865768Y2528366D01*
X8869883Y2524302D01*
X8874760Y2521204D01*
X8880246Y2519324D01*
X8886545Y2518613D01*
X8963914Y2518613D01*
X8967825Y2517800D01*
X8971076Y2515616D01*
X8973312Y2512314D01*
X8974074Y2508453D01*
X8974074Y2190546D01*
X8973312Y2186686D01*
X8971076Y2183384D01*
X8967825Y2181199D01*
X8963914Y2180386D01*
X8886545Y2180386D01*
X8880246Y2179675D01*
X8874760Y2177796D01*
X8869883Y2174697D01*
X8865768Y2170633D01*
X8862720Y2165705D01*
X8860790Y2160270D01*
X8860078Y2153920D01*
X8860078Y2045055D01*
X8860790Y2038756D01*
X8862720Y2033270D01*
X8865768Y2028393D01*
X8869883Y2024278D01*
X8874760Y2021230D01*
X8880246Y2019300D01*
X8886545Y2018588D01*
X8963914Y2018588D01*
X8967825Y2017826D01*
X8971076Y2015642D01*
X8973312Y2012340D01*
X8974074Y2008428D01*
X8974074Y36068D01*
X8973312Y32156D01*
X8971076Y28905D01*
X8967825Y26670D01*
X8963914Y25908D01*
G37*

%LPC*%
G36*
X2393950Y128117D02*
G01*
X2395524Y128778D01*
X2407259Y135737D01*
X2417978Y144170D01*
X2427478Y153974D01*
X2435555Y164947D01*
X2441295Y175412D01*
X2393950Y175412D01*
G37*
G36*
X2305050Y128117D02*
G01*
X2305050Y175412D01*
X2257704Y175412D01*
X2263444Y164947D01*
X2271522Y153974D01*
X2281021Y144170D01*
X2291740Y135737D01*
X2303475Y128778D01*
G37*
G36*
X2257856Y264312D02*
G01*
X2305050Y264312D01*
X2305050Y311556D01*
X2297480Y307746D01*
X2286254Y300024D01*
X2276094Y290880D01*
X2267305Y280466D01*
X2259990Y268935D01*
G37*
G36*
X2393950Y264312D02*
G01*
X2441143Y264312D01*
X2439009Y268935D01*
X2431694Y280466D01*
X2422906Y290880D01*
X2412746Y300024D01*
X2401519Y307746D01*
X2393950Y311556D01*
G37*
G36*
X1735074Y420268D02*
G01*
X1748942Y428294D01*
X1762810Y438454D01*
X1775460Y450088D01*
X1786737Y463042D01*
X1796491Y477164D01*
X1802079Y487426D01*
X1735074Y487426D01*
G37*
G36*
X1592326Y420471D02*
G01*
X1592326Y487426D01*
X1525270Y487426D01*
X1526590Y484581D01*
X1535582Y469950D01*
X1546148Y456438D01*
X1558137Y444093D01*
X1571396Y433171D01*
X1585772Y423773D01*
G37*
G36*
X2342692Y618032D02*
G01*
X2356307Y618032D01*
X2369820Y619861D01*
X2382977Y623468D01*
X2395524Y628751D01*
X2407259Y635711D01*
X2417978Y644194D01*
X2427478Y653999D01*
X2435555Y664972D01*
X2442108Y676910D01*
X2446985Y689660D01*
X2450185Y702919D01*
X2451506Y716483D01*
X2451049Y730097D01*
X2448814Y743559D01*
X2444750Y756564D01*
X2439009Y768959D01*
X2431694Y780440D01*
X2422906Y790854D01*
X2412746Y799998D01*
X2401519Y807720D01*
X2389378Y813866D01*
X2376474Y818337D01*
X2363114Y821080D01*
X2349500Y821994D01*
X2335885Y821080D01*
X2322525Y818337D01*
X2309622Y813866D01*
X2297480Y807720D01*
X2286254Y799998D01*
X2276094Y790854D01*
X2267305Y780440D01*
X2259990Y768959D01*
X2254250Y756564D01*
X2250186Y743559D01*
X2247950Y730097D01*
X2247493Y716483D01*
X2248814Y702919D01*
X2252014Y689660D01*
X2256891Y676910D01*
X2263444Y664972D01*
X2271522Y653999D01*
X2281021Y644194D01*
X2291740Y635711D01*
X2303475Y628751D01*
X2316022Y623468D01*
X2329180Y619861D01*
G37*
G36*
X1525270Y630174D02*
G01*
X1592326Y630174D01*
X1592326Y697128D01*
X1585772Y693826D01*
X1571396Y684428D01*
X1558137Y673506D01*
X1546148Y661162D01*
X1535582Y647649D01*
X1526590Y633018D01*
G37*
G36*
X1735074Y630174D02*
G01*
X1802079Y630174D01*
X1796491Y640435D01*
X1786737Y654558D01*
X1775460Y667512D01*
X1762810Y679145D01*
X1748942Y689305D01*
X1735074Y697331D01*
G37*
G36*
X4137558Y1158595D02*
G01*
X4145838Y1162862D01*
X4155440Y1169720D01*
X4163923Y1177950D01*
X4171137Y1187297D01*
X4177131Y1198067D01*
X4137558Y1198067D01*
G37*
G36*
X4069842Y1158646D02*
G01*
X4069842Y1198067D01*
X4030472Y1198067D01*
X4033164Y1192326D01*
X4039666Y1182471D01*
X4047540Y1173683D01*
X4056634Y1166114D01*
X4066743Y1159967D01*
G37*
G36*
X4030472Y1265732D02*
G01*
X4069842Y1265732D01*
X4069842Y1305153D01*
X4066743Y1303832D01*
X4056634Y1297686D01*
X4047540Y1290116D01*
X4039666Y1281328D01*
X4033164Y1271473D01*
G37*
G36*
X4137558Y1265732D02*
G01*
X4177131Y1265732D01*
X4171137Y1276502D01*
X4163923Y1285849D01*
X4155440Y1294079D01*
X4145838Y1300937D01*
X4137558Y1305204D01*
G37*
G36*
X1945487Y1337005D02*
G01*
X1951329Y1339494D01*
X1961388Y1345641D01*
X1970430Y1353210D01*
X1978304Y1362049D01*
X1984806Y1371904D01*
X1986229Y1374952D01*
X1946859Y1376375D01*
G37*
G36*
X1877822Y1339342D02*
G01*
X1879193Y1378712D01*
X1839823Y1380083D01*
X1841042Y1376934D01*
X1846834Y1366621D01*
X1854047Y1357274D01*
X1862582Y1349095D01*
X1872183Y1342237D01*
G37*
G36*
X1881581Y1446377D02*
G01*
X1882952Y1485900D01*
X1871980Y1480312D01*
X1862378Y1473454D01*
X1853895Y1465224D01*
X1846681Y1455877D01*
X1842160Y1447749D01*
G37*
G36*
X2537663Y1774698D02*
G01*
X2593238Y1774698D01*
X2593238Y1821738D01*
X2511196Y1821738D01*
X2511196Y1801164D01*
X2511907Y1794865D01*
X2513838Y1789379D01*
X2516886Y1784502D01*
X2521000Y1780387D01*
X2525877Y1777339D01*
X2531364Y1775409D01*
G37*
G36*
X2730957Y1774698D02*
G01*
X2786532Y1774698D01*
X2792831Y1775409D01*
X2798318Y1777339D01*
X2803194Y1780387D01*
X2807309Y1784502D01*
X2810408Y1789379D01*
X2812288Y1794865D01*
X2812999Y1801164D01*
X2812999Y1821738D01*
X2730957Y1821738D01*
G37*
G36*
X4235450Y1855317D02*
G01*
X4235450Y1902612D01*
X4188104Y1902612D01*
X4193844Y1892147D01*
X4201922Y1881174D01*
X4211421Y1871370D01*
X4222140Y1862937D01*
X4233875Y1855978D01*
G37*
G36*
X4324350Y1855317D02*
G01*
X4325924Y1855978D01*
X4337659Y1862937D01*
X4348378Y1871370D01*
X4357878Y1881174D01*
X4365955Y1892147D01*
X4371695Y1902612D01*
X4324350Y1902612D01*
G37*
G36*
X2730957Y1889455D02*
G01*
X2812999Y1889455D01*
X2812999Y1910029D01*
X2812288Y1916328D01*
X2810408Y1921814D01*
X2807309Y1926691D01*
X2803194Y1930806D01*
X2798318Y1933905D01*
X2792831Y1935784D01*
X2786532Y1936496D01*
X2730957Y1936496D01*
G37*
G36*
X2511196Y1889455D02*
G01*
X2593238Y1889455D01*
X2593238Y1936496D01*
X2537663Y1936496D01*
X2531364Y1935784D01*
X2525877Y1933905D01*
X2521000Y1930806D01*
X2516886Y1926691D01*
X2513838Y1921814D01*
X2511907Y1916328D01*
X2511196Y1910029D01*
G37*
G36*
X4188256Y1991512D02*
G01*
X4235450Y1991512D01*
X4235450Y2038756D01*
X4227880Y2034946D01*
X4216654Y2027224D01*
X4206494Y2018080D01*
X4197705Y2007666D01*
X4190390Y1996135D01*
G37*
G36*
X4324350Y1991512D02*
G01*
X4371543Y1991512D01*
X4369409Y1996135D01*
X4362094Y2007666D01*
X4353306Y2018080D01*
X4343146Y2027224D01*
X4331919Y2034946D01*
X4324350Y2038756D01*
G37*
G36*
X8286597Y2018588D02*
G01*
X8304682Y2018588D01*
X8304682Y2065629D01*
X8260130Y2065629D01*
X8260130Y2045055D01*
X8260842Y2038756D01*
X8262721Y2033270D01*
X8265820Y2028393D01*
X8269884Y2024278D01*
X8274812Y2021230D01*
X8280247Y2019300D01*
G37*
G36*
X8367369Y2018588D02*
G01*
X8385454Y2018588D01*
X8391753Y2019300D01*
X8397240Y2021230D01*
X8402116Y2024278D01*
X8406231Y2028393D01*
X8409279Y2033270D01*
X8411210Y2038756D01*
X8411921Y2045055D01*
X8411921Y2065629D01*
X8367369Y2065629D01*
G37*
G36*
X8121903Y2048052D02*
G01*
X8145170Y2048052D01*
X8151520Y2048764D01*
X8156956Y2050643D01*
X8161883Y2053742D01*
X8165947Y2057857D01*
X8169046Y2062734D01*
X8170925Y2068220D01*
X8171637Y2074519D01*
X8171637Y2110130D01*
X8121903Y2110130D01*
G37*
G36*
X8025587Y2048052D02*
G01*
X8048853Y2048052D01*
X8048853Y2110130D01*
X7999069Y2110130D01*
X7999069Y2074519D01*
X7999780Y2068220D01*
X8001711Y2062734D01*
X8004809Y2057857D01*
X8008874Y2053742D01*
X8013801Y2050643D01*
X8019237Y2048764D01*
G37*
G36*
X7729829Y2048052D02*
G01*
X7849412Y2048052D01*
X7855762Y2048764D01*
X7861198Y2050643D01*
X7866125Y2053742D01*
X7870190Y2057857D01*
X7873288Y2062734D01*
X7875219Y2068220D01*
X7875930Y2074519D01*
X7875930Y2243480D01*
X7875219Y2249779D01*
X7873288Y2255266D01*
X7870190Y2260142D01*
X7866125Y2264257D01*
X7861198Y2267356D01*
X7855762Y2269236D01*
X7849412Y2269947D01*
X7729829Y2269947D01*
X7723479Y2269236D01*
X7718044Y2267356D01*
X7713116Y2264257D01*
X7709052Y2260142D01*
X7705953Y2255266D01*
X7704074Y2249779D01*
X7703362Y2243480D01*
X7703362Y2074519D01*
X7704074Y2068220D01*
X7705953Y2062734D01*
X7709052Y2057857D01*
X7713116Y2053742D01*
X7718044Y2050643D01*
X7723479Y2048764D01*
G37*
G36*
X8367369Y2133346D02*
G01*
X8411921Y2133346D01*
X8411921Y2153920D01*
X8411210Y2160270D01*
X8409279Y2165705D01*
X8406231Y2170633D01*
X8402116Y2174697D01*
X8397240Y2177796D01*
X8391753Y2179675D01*
X8385454Y2180386D01*
X8367369Y2180386D01*
G37*
G36*
X8260130Y2133346D02*
G01*
X8304682Y2133346D01*
X8304682Y2180386D01*
X8286597Y2180386D01*
X8280247Y2179675D01*
X8274812Y2177796D01*
X8269884Y2174697D01*
X8265820Y2170633D01*
X8262721Y2165705D01*
X8260842Y2160270D01*
X8260130Y2153920D01*
G37*
G36*
X7999069Y2207869D02*
G01*
X8048853Y2207869D01*
X8048853Y2269947D01*
X8025587Y2269947D01*
X8019237Y2269236D01*
X8013801Y2267356D01*
X8008874Y2264257D01*
X8004809Y2260142D01*
X8001711Y2255266D01*
X7999780Y2249779D01*
X7999069Y2243480D01*
G37*
G36*
X8121903Y2207869D02*
G01*
X8171637Y2207869D01*
X8171637Y2243480D01*
X8170925Y2249779D01*
X8169046Y2255266D01*
X8165947Y2260142D01*
X8161883Y2264257D01*
X8156956Y2267356D01*
X8151520Y2269236D01*
X8145170Y2269947D01*
X8121903Y2269947D01*
G37*
G36*
X4978908Y2488895D02*
G01*
X5498592Y2488895D01*
X5506567Y2489657D01*
X5513781Y2491841D01*
X5520436Y2495397D01*
X5526633Y2500477D01*
X5818022Y2791866D01*
X5823102Y2798064D01*
X5826658Y2804718D01*
X5828842Y2811932D01*
X5829604Y2819908D01*
X5829604Y3464001D01*
X5830112Y3467150D01*
X5831535Y3469995D01*
X5912713Y3581552D01*
X5915456Y3584143D01*
X5918911Y3585565D01*
X6022594Y3606292D01*
X6024626Y3606495D01*
X6239764Y3606495D01*
X6247739Y3607257D01*
X6254953Y3609441D01*
X6261608Y3612997D01*
X6267805Y3618077D01*
X6277000Y3627323D01*
X6280302Y3629507D01*
X6284214Y3630269D01*
X6396380Y3630269D01*
X6402679Y3630980D01*
X6408166Y3632911D01*
X6413042Y3636010D01*
X6417157Y3640074D01*
X6420256Y3645001D01*
X6422136Y3650437D01*
X6422847Y3656787D01*
X6422847Y3776370D01*
X6422136Y3782720D01*
X6420256Y3788156D01*
X6417157Y3793083D01*
X6413042Y3797147D01*
X6408166Y3800246D01*
X6402679Y3802126D01*
X6396380Y3802837D01*
X6227419Y3802837D01*
X6221120Y3802126D01*
X6215634Y3800246D01*
X6210757Y3797147D01*
X6206642Y3793083D01*
X6203543Y3788156D01*
X6201664Y3782720D01*
X6200952Y3776370D01*
X6200952Y3693464D01*
X6200190Y3689604D01*
X6197955Y3686301D01*
X6194653Y3684066D01*
X6190792Y3683304D01*
X6020308Y3683304D01*
X6011824Y3682492D01*
X5885738Y3657244D01*
X5878068Y3654907D01*
X5871464Y3651351D01*
X5865571Y3646525D01*
X5861507Y3641750D01*
X5760212Y3502456D01*
X5755741Y3494481D01*
X5753557Y3487267D01*
X5752795Y3479292D01*
X5752795Y2839516D01*
X5752033Y2835605D01*
X5749798Y2832354D01*
X5486146Y2568702D01*
X5482894Y2566466D01*
X5478983Y2565704D01*
X4998516Y2565704D01*
X4994605Y2566466D01*
X4991354Y2568702D01*
X4901082Y2658922D01*
X4898948Y2662072D01*
X4898136Y2665831D01*
X4898694Y2669590D01*
X4900676Y2672842D01*
X4903673Y2675178D01*
X4907330Y2676245D01*
X4943297Y2679496D01*
X4951171Y2681020D01*
X4958130Y2683814D01*
X4964430Y2687980D01*
X4969764Y2693263D01*
X4974183Y2699715D01*
X4976418Y2702102D01*
X4979365Y2703677D01*
X4982565Y2704185D01*
X5029758Y2704185D01*
X5036058Y2704896D01*
X5041493Y2706827D01*
X5046421Y2709875D01*
X5050485Y2713990D01*
X5053584Y2718866D01*
X5055514Y2724353D01*
X5056225Y2730652D01*
X5056225Y2929534D01*
X5055514Y2935833D01*
X5053584Y2941320D01*
X5050485Y2946196D01*
X5046421Y2950311D01*
X5041493Y2953359D01*
X5036058Y2955290D01*
X5029758Y2956001D01*
X4850892Y2956001D01*
X4844542Y2955290D01*
X4839106Y2953359D01*
X4834178Y2950311D01*
X4830114Y2946196D01*
X4827016Y2941320D01*
X4825085Y2935833D01*
X4824374Y2929534D01*
X4824374Y2755087D01*
X4823714Y2751429D01*
X4821732Y2748280D01*
X4818735Y2745994D01*
X4815179Y2744978D01*
X4797399Y2743352D01*
X4793081Y2742742D01*
X4789779Y2741930D01*
X4785868Y2740558D01*
X4782769Y2739136D01*
X4779213Y2737002D01*
X4776470Y2734970D01*
X4773422Y2732227D01*
X4771136Y2729687D01*
X4768646Y2726385D01*
X4766868Y2723489D01*
X4765090Y2719781D01*
X4763973Y2716580D01*
X4762957Y2712567D01*
X4762398Y2709164D01*
X4762195Y2705049D01*
X4762347Y2701645D01*
X4762957Y2697581D01*
X4763770Y2694279D01*
X4765141Y2690368D01*
X4766564Y2687269D01*
X4768697Y2683713D01*
X4770729Y2680970D01*
X4773625Y2677769D01*
X4950866Y2500477D01*
X4957064Y2495397D01*
X4963718Y2491841D01*
X4970932Y2489657D01*
G37*
G36*
X5245658Y2704185D02*
G01*
X5283758Y2704185D01*
X5290058Y2704896D01*
X5295493Y2706827D01*
X5300421Y2709875D01*
X5304485Y2713990D01*
X5307584Y2718866D01*
X5309514Y2724353D01*
X5310225Y2730652D01*
X5310225Y2773730D01*
X5245658Y2773730D01*
G37*
G36*
X5104892Y2704185D02*
G01*
X5142941Y2704185D01*
X5142941Y2773730D01*
X5078374Y2773730D01*
X5078374Y2730652D01*
X5079085Y2724353D01*
X5081016Y2718866D01*
X5084114Y2713990D01*
X5088178Y2709875D01*
X5093106Y2706827D01*
X5098542Y2704896D01*
G37*
G36*
X1968500Y2871724D02*
G01*
X1985416Y2872638D01*
X2002078Y2875483D01*
X2018334Y2880156D01*
X2033981Y2886659D01*
X2048764Y2894838D01*
X2062581Y2904642D01*
X2075180Y2915920D01*
X2086457Y2928518D01*
X2096262Y2942336D01*
X2104440Y2957118D01*
X2110943Y2972765D01*
X2115616Y2989021D01*
X2118461Y3005683D01*
X2119376Y3022600D01*
X2119223Y3025800D01*
X2119884Y3030016D01*
X2122170Y3033572D01*
X2203500Y3114903D01*
X2212441Y3125114D01*
X2219756Y3136087D01*
X2225598Y3147923D01*
X2229866Y3160369D01*
X2232406Y3173323D01*
X2233320Y3186836D01*
X2233320Y4128109D01*
X2234234Y4132326D01*
X2236774Y4135780D01*
X2247900Y4145534D01*
X2259888Y4158487D01*
X2270404Y4172610D01*
X2279345Y4187799D01*
X2286609Y4203852D01*
X2292146Y4220565D01*
X2295855Y4237786D01*
X2297734Y4255363D01*
X2297734Y4272940D01*
X2295855Y4290466D01*
X2292146Y4307738D01*
X2286609Y4324451D01*
X2279345Y4340504D01*
X2270404Y4355693D01*
X2259888Y4369816D01*
X2247900Y4382770D01*
X2234641Y4394403D01*
X2220214Y4404512D01*
X2204821Y4413046D01*
X2188565Y4419904D01*
X2171700Y4425035D01*
X2154377Y4428286D01*
X2136800Y4429709D01*
X2119172Y4429201D01*
X2101697Y4426864D01*
X2084578Y4422698D01*
X2068017Y4416704D01*
X2052167Y4408982D01*
X2037232Y4399635D01*
X2023364Y4388764D01*
X2010714Y4376470D01*
X1999488Y4362907D01*
X1989734Y4348226D01*
X1981606Y4332579D01*
X1975154Y4316171D01*
X1970532Y4299153D01*
X1967738Y4281728D01*
X1966823Y4264152D01*
X1967738Y4246575D01*
X1970532Y4229150D01*
X1975154Y4212132D01*
X1981606Y4195724D01*
X1989734Y4180078D01*
X1999488Y4165396D01*
X2010714Y4151833D01*
X2023364Y4139539D01*
X2027631Y4136186D01*
X2029714Y4133951D01*
X2031034Y4131208D01*
X2031492Y4128211D01*
X2031492Y3232505D01*
X2030730Y3228644D01*
X2028545Y3225342D01*
X1979472Y3176270D01*
X1975916Y3173984D01*
X1971700Y3173323D01*
X1968500Y3173476D01*
X1951583Y3172561D01*
X1934921Y3169716D01*
X1918665Y3165043D01*
X1903018Y3158540D01*
X1888236Y3150362D01*
X1874418Y3140557D01*
X1861820Y3129280D01*
X1850542Y3116681D01*
X1840738Y3102864D01*
X1832559Y3088081D01*
X1826056Y3072434D01*
X1821383Y3056178D01*
X1818538Y3039516D01*
X1817624Y3022600D01*
X1818538Y3005683D01*
X1821383Y2989021D01*
X1826056Y2972765D01*
X1832559Y2957118D01*
X1840738Y2942336D01*
X1850542Y2928518D01*
X1861820Y2915920D01*
X1874418Y2904642D01*
X1888236Y2894838D01*
X1903018Y2886659D01*
X1918665Y2880156D01*
X1934921Y2875483D01*
X1951583Y2872638D01*
G37*
G36*
X5245658Y2886456D02*
G01*
X5310225Y2886456D01*
X5310225Y2929534D01*
X5309514Y2935833D01*
X5307584Y2941320D01*
X5304485Y2946196D01*
X5300421Y2950311D01*
X5295493Y2953359D01*
X5290058Y2955290D01*
X5283758Y2956001D01*
X5245658Y2956001D01*
G37*
G36*
X5078374Y2886456D02*
G01*
X5142941Y2886456D01*
X5142941Y2956001D01*
X5104892Y2956001D01*
X5098542Y2955290D01*
X5093106Y2953359D01*
X5088178Y2950311D01*
X5084114Y2946196D01*
X5081016Y2941320D01*
X5079085Y2935833D01*
X5078374Y2929534D01*
G37*
G36*
X8261197Y2920288D02*
G01*
X8279282Y2920288D01*
X8279282Y2967329D01*
X8234730Y2967329D01*
X8234730Y2946755D01*
X8235442Y2940456D01*
X8237321Y2934970D01*
X8240420Y2930093D01*
X8244484Y2925978D01*
X8249412Y2922930D01*
X8254847Y2921000D01*
G37*
G36*
X8341969Y2920288D02*
G01*
X8360054Y2920288D01*
X8366353Y2921000D01*
X8371840Y2922930D01*
X8376716Y2925978D01*
X8380831Y2930093D01*
X8383879Y2934970D01*
X8385809Y2940456D01*
X8386521Y2946755D01*
X8386521Y2967329D01*
X8341969Y2967329D01*
G37*
G36*
X4017467Y3006699D02*
G01*
X4059732Y3006699D01*
X4071924Y3007614D01*
X4083507Y3010255D01*
X4094530Y3014573D01*
X4104843Y3020517D01*
X4114088Y3027883D01*
X4122165Y3036620D01*
X4128871Y3046425D01*
X4134002Y3057093D01*
X4137507Y3068421D01*
X4139285Y3080156D01*
X4139285Y3092043D01*
X4137507Y3103778D01*
X4134002Y3115106D01*
X4128871Y3125774D01*
X4122165Y3135579D01*
X4115612Y3142691D01*
X4113580Y3145891D01*
X4112869Y3149600D01*
X4113580Y3153308D01*
X4115612Y3156508D01*
X4122165Y3163570D01*
X4128871Y3173374D01*
X4134002Y3184093D01*
X4137507Y3195421D01*
X4139285Y3207156D01*
X4139285Y3218992D01*
X4137507Y3230727D01*
X4134002Y3242056D01*
X4126992Y3256584D01*
X4126687Y3260090D01*
X4127601Y3263442D01*
X4129633Y3266287D01*
X4133799Y3270453D01*
X4136898Y3275380D01*
X4138828Y3280816D01*
X4139539Y3287166D01*
X4139539Y3306978D01*
X4082440Y3306978D01*
X4082440Y3301746D01*
X4081627Y3297682D01*
X4079189Y3294278D01*
X4075633Y3292144D01*
X4071518Y3291586D01*
X4059732Y3292500D01*
X4017467Y3292500D01*
X4005681Y3291586D01*
X4001566Y3292144D01*
X3998010Y3294278D01*
X3995623Y3297682D01*
X3994759Y3301746D01*
X3994759Y3306978D01*
X3937711Y3306978D01*
X3937711Y3287166D01*
X3938422Y3280816D01*
X3940301Y3275380D01*
X3943400Y3270453D01*
X3947566Y3266287D01*
X3949598Y3263442D01*
X3950512Y3260090D01*
X3950208Y3256584D01*
X3943197Y3242056D01*
X3939743Y3230727D01*
X3937965Y3218992D01*
X3937965Y3207156D01*
X3939743Y3195421D01*
X3943197Y3184093D01*
X3948379Y3173374D01*
X3955034Y3163570D01*
X3961637Y3156508D01*
X3963619Y3153308D01*
X3964330Y3149600D01*
X3963619Y3145891D01*
X3961637Y3142691D01*
X3955034Y3135579D01*
X3948379Y3125774D01*
X3943197Y3115106D01*
X3939743Y3103778D01*
X3937965Y3092043D01*
X3937965Y3080156D01*
X3939743Y3068421D01*
X3943197Y3057093D01*
X3948379Y3046425D01*
X3955034Y3036620D01*
X3963111Y3027883D01*
X3972407Y3020517D01*
X3982669Y3014573D01*
X3993692Y3010255D01*
X4005275Y3007614D01*
G37*
G36*
X8234730Y3035046D02*
G01*
X8279282Y3035046D01*
X8279282Y3082086D01*
X8261197Y3082086D01*
X8254847Y3081375D01*
X8249412Y3079496D01*
X8244484Y3076397D01*
X8240420Y3072333D01*
X8237321Y3067405D01*
X8235442Y3061970D01*
X8234730Y3055620D01*
G37*
G36*
X8341969Y3035046D02*
G01*
X8386521Y3035046D01*
X8386521Y3055620D01*
X8385809Y3061970D01*
X8383879Y3067405D01*
X8380831Y3072333D01*
X8376716Y3076397D01*
X8371840Y3079496D01*
X8366353Y3081375D01*
X8360054Y3082086D01*
X8341969Y3082086D01*
G37*
G36*
X6227419Y3334562D02*
G01*
X6396380Y3334562D01*
X6402679Y3335274D01*
X6408166Y3337153D01*
X6413042Y3340252D01*
X6417157Y3344316D01*
X6420256Y3349244D01*
X6422136Y3354679D01*
X6422847Y3361029D01*
X6422847Y3480612D01*
X6422136Y3486962D01*
X6420256Y3492398D01*
X6417157Y3497326D01*
X6413042Y3501390D01*
X6408166Y3504488D01*
X6402679Y3506419D01*
X6396380Y3507130D01*
X6227419Y3507130D01*
X6221120Y3506419D01*
X6215634Y3504488D01*
X6210757Y3501390D01*
X6206642Y3497326D01*
X6203543Y3492398D01*
X6201664Y3486962D01*
X6200952Y3480612D01*
X6200952Y3361029D01*
X6201664Y3354679D01*
X6203543Y3349244D01*
X6206642Y3344316D01*
X6210757Y3340252D01*
X6215634Y3337153D01*
X6221120Y3335274D01*
G37*
G36*
X4082440Y3373170D02*
G01*
X4139539Y3373170D01*
X4139539Y3393033D01*
X4138828Y3399332D01*
X4136898Y3404819D01*
X4133799Y3409696D01*
X4129735Y3413810D01*
X4124807Y3416858D01*
X4119372Y3418789D01*
X4113022Y3419500D01*
X4082440Y3419500D01*
G37*
G36*
X3937711Y3373170D02*
G01*
X3994759Y3373170D01*
X3994759Y3419500D01*
X3964178Y3419500D01*
X3957878Y3418789D01*
X3952392Y3416858D01*
X3947515Y3413810D01*
X3943400Y3409696D01*
X3940301Y3404819D01*
X3938422Y3399332D01*
X3937711Y3393033D01*
G37*
G36*
X8261197Y3420313D02*
G01*
X8360054Y3420313D01*
X8366353Y3421024D01*
X8371840Y3422904D01*
X8376716Y3426002D01*
X8380831Y3430066D01*
X8383879Y3434994D01*
X8385809Y3440429D01*
X8386521Y3446779D01*
X8386521Y3555644D01*
X8385809Y3561943D01*
X8383879Y3567429D01*
X8380831Y3572306D01*
X8376716Y3576421D01*
X8371840Y3579469D01*
X8366353Y3581400D01*
X8360054Y3582111D01*
X8261197Y3582111D01*
X8254847Y3581400D01*
X8249412Y3579469D01*
X8244484Y3576421D01*
X8240420Y3572306D01*
X8237321Y3567429D01*
X8235442Y3561943D01*
X8234730Y3555644D01*
X8234730Y3446779D01*
X8235442Y3440429D01*
X8237321Y3434994D01*
X8240420Y3430066D01*
X8244484Y3426002D01*
X8249412Y3422904D01*
X8254847Y3421024D01*
G37*
G36*
X3150463Y3524402D02*
G01*
X3349345Y3524402D01*
X3355644Y3525113D01*
X3361131Y3526993D01*
X3366008Y3530092D01*
X3370122Y3534156D01*
X3373170Y3539083D01*
X3375101Y3544519D01*
X3375812Y3550869D01*
X3375812Y3789730D01*
X3375101Y3796029D01*
X3373170Y3801516D01*
X3370122Y3806393D01*
X3366008Y3810508D01*
X3361131Y3813556D01*
X3355644Y3815486D01*
X3349345Y3816197D01*
X3150463Y3816197D01*
X3144164Y3815486D01*
X3138678Y3813556D01*
X3133801Y3810508D01*
X3129686Y3806393D01*
X3126638Y3801516D01*
X3124708Y3796029D01*
X3123996Y3789730D01*
X3123996Y3550869D01*
X3124708Y3544519D01*
X3126638Y3539083D01*
X3129686Y3534156D01*
X3133801Y3530092D01*
X3138678Y3526993D01*
X3144164Y3525113D01*
G37*
G36*
X5104892Y3724198D02*
G01*
X5283758Y3724198D01*
X5290058Y3724910D01*
X5295493Y3726789D01*
X5300421Y3729888D01*
X5304485Y3734003D01*
X5307584Y3738879D01*
X5309514Y3744366D01*
X5310225Y3750665D01*
X5310225Y3949547D01*
X5309514Y3955846D01*
X5307584Y3961333D01*
X5304485Y3966210D01*
X5300421Y3970324D01*
X5295493Y3973372D01*
X5290058Y3975303D01*
X5283758Y3976014D01*
X5104892Y3976014D01*
X5098542Y3975303D01*
X5093106Y3973372D01*
X5088178Y3970324D01*
X5084114Y3966210D01*
X5081016Y3961333D01*
X5079085Y3955846D01*
X5078374Y3949547D01*
X5078374Y3750665D01*
X5079085Y3744366D01*
X5081016Y3738879D01*
X5084114Y3734003D01*
X5088178Y3729888D01*
X5093106Y3726789D01*
X5098542Y3724910D01*
G37*
G36*
X4195419Y3753662D02*
G01*
X4364380Y3753662D01*
X4370679Y3754374D01*
X4376166Y3756253D01*
X4381042Y3759352D01*
X4385157Y3763416D01*
X4388256Y3768344D01*
X4390136Y3773779D01*
X4390847Y3780129D01*
X4390847Y3899712D01*
X4390136Y3906062D01*
X4388256Y3911498D01*
X4385157Y3916426D01*
X4381042Y3920490D01*
X4376166Y3923588D01*
X4370679Y3925519D01*
X4364380Y3926230D01*
X4315510Y3926230D01*
X4312564Y3926636D01*
X4304588Y3929075D01*
X4295038Y3930345D01*
X4285386Y3929887D01*
X4275937Y3927856D01*
X4273600Y3926941D01*
X4269841Y3926230D01*
X4195419Y3926230D01*
X4189120Y3925519D01*
X4183634Y3923588D01*
X4178757Y3920490D01*
X4174642Y3916426D01*
X4171543Y3911498D01*
X4169664Y3906062D01*
X4168952Y3899712D01*
X4168952Y3780129D01*
X4169664Y3773779D01*
X4171543Y3768344D01*
X4174642Y3763416D01*
X4178757Y3759352D01*
X4183634Y3756253D01*
X4189120Y3754374D01*
G37*

%LPD*%
D10*
X7445120Y4169282D02*
G01*
X7445120Y3911600D01*
X8937472Y5995568D02*
G01*
X8889187Y5947282D01*
X7140447Y5635675D02*
G01*
X7744840Y5635675D01*
X8153755Y5226761D01*
X8153755Y5226761D02*
G01*
X7741361Y5226761D01*
X7632700Y5118100D01*
X8937472Y5995568D02*
G01*
X8889187Y5947282D01*
X8968892Y5867577D01*
X8968892Y4195876D01*
X8683523Y5991148D02*
G01*
X8683523Y5813323D01*
X8458200Y5588000D01*
X8458200Y4533900D01*
D11*
X952500Y3022600D02*
G01*
X712470Y3262629D01*
X622300Y3810000D01*
X712470Y4864100D01*
D12*
X2769870Y3670300D02*
G01*
X2769870Y5483097D01*
X2692400Y5537200D01*
D10*
X4940300Y2717800D02*
G01*
X4800600Y2705100D01*
X4978400Y2527300D01*
X5499100Y2527300D01*
X5791200Y2819400D01*
X5791200Y3479800D01*
X5892800Y3619500D01*
X6019800Y3644900D01*
X6240272Y3644900D01*
X6311900Y3716528D01*
X8343900Y2603500D02*
G01*
X7289800Y3492500D01*
X7289800Y4138701D01*
X7318146Y4167047D01*
D12*
X4279900Y4135120D02*
G01*
X4381500Y4236720D01*
X4381500Y4267200D01*
X4622800Y4140200D01*
X4622800Y3733800D01*
X4660900Y2451100D01*
X4826000Y2286000D01*
X5575300Y2286000D01*
X6985000Y3733800D01*
X7048500Y3835400D01*
X6934200Y3987800D01*
X7371085Y4475479D01*
X8763000Y4445000D01*
X8810497Y4492497D01*
X8810497Y5993358D01*
X1729996Y5537200D02*
G01*
X1013965Y5537200D01*
X940864Y5464098D01*
X912393Y5464098D01*
D11*
X1460500Y3022600D02*
G01*
X1625600Y3187700D01*
X1625600Y4711700D01*
X2132406Y5218506D01*
X2132406Y5464047D01*
D12*
X1921179Y1611251D02*
G01*
X1511300Y1587500D01*
X1155700Y1231900D01*
X1155700Y558800D01*
X4303775Y1231900D02*
G01*
X4303775Y1614423D01*
X3784600Y2133600D01*
X3784600Y2447036D01*
X4279900Y2447036D01*
X4279900Y2447038D02*
G01*
X4279900Y3454400D01*
X3987800Y3746500D01*
X3987800Y4025900D01*
X4097578Y4135678D01*
X4279900Y4135678D01*
X2662174Y1625600D02*
G01*
X2857500Y1536700D01*
X2959100Y1460500D01*
X3454400Y1231900D01*
X3721100Y1206500D01*
X3860800Y1066800D01*
X4303775Y1066800D01*
X4303775Y1231900D01*
X1921255Y1611121D02*
G01*
X2136902Y1395729D01*
X2662174Y1395729D01*
D11*
X1968500Y3022600D02*
G01*
X2132406Y3186506D01*
X2132406Y4264152D01*
D12*
X2769895Y3670300D02*
G01*
X2730500Y2197100D01*
X1920239Y1611251D01*
X2769864Y3670300D02*
G01*
X2971800Y3670300D01*
X3048000Y4330700D01*
X3835400Y4533900D01*
X4762500Y4533900D01*
X4940300Y4356100D01*
X4940300Y3850106D01*
D13*
G01*
X3249904Y3670300D03*
G01*
X2769920Y3670300D03*
D14*
G01*
X8085376Y2159000D03*
G01*
X7789623Y2159000D03*
D15*
G01*
X6311900Y3716576D03*
D16*
G01*
X6311900Y3420821D03*
D15*
G01*
X4279900Y3839923D03*
D17*
G01*
X4279900Y4135678D03*
D18*
G01*
X8310600Y3501212D03*
G01*
X8910599Y3501212D03*
G01*
X8310600Y3001213D03*
G01*
X8910599Y3001213D03*
G01*
X8336000Y2599512D03*
G01*
X8935999Y2599512D03*
G01*
X8336000Y2099513D03*
G01*
X8935999Y2099513D03*
D20*
G01*
X2662097Y1855596D03*
D18*
G01*
X2662123Y1625600D03*
D20*
G01*
X2662097Y1395603D03*
D21*
G01*
X3256102Y1625600D03*
D22*
G01*
X4940300Y3850106D03*
G01*
X5194300Y3850106D03*
G01*
X5194300Y2830093D03*
G01*
X4940300Y2830093D03*
D23*
G01*
X8937473Y5995572D03*
D24*
G01*
X8810485Y5993366D03*
D23*
G01*
X8683511Y5991138D03*
G01*
X8556531Y5988922D03*
G01*
X8429550Y5986706D03*
G01*
X8302570Y5984490D03*
D25*
G01*
X8175588Y5982272D03*
D23*
G01*
X8048608Y5980056D03*
G01*
X7921627Y5977840D03*
D25*
G01*
X7794646Y5975623D03*
D23*
G01*
X7667666Y5973408D03*
G01*
X7540685Y5971190D03*
G01*
X7413705Y5968974D03*
G01*
X7286725Y5966758D03*
D26*
G01*
X7140458Y5635669D03*
G01*
X7142675Y5508688D03*
D27*
G01*
X7144891Y5381707D03*
D26*
G01*
X7147107Y5254727D03*
D27*
G01*
X7149325Y5127746D03*
G01*
X7151566Y5000765D03*
D26*
G01*
X7153783Y4873786D03*
D27*
G01*
X7156000Y4746805D03*
D26*
G01*
X7158215Y4619824D03*
D28*
G01*
X7160432Y4492843D03*
D23*
G01*
X7318137Y4167061D03*
G01*
X7445119Y4169277D03*
G01*
X7572099Y4171494D03*
G01*
X7699080Y4173710D03*
D25*
G01*
X7826061Y4175926D03*
D23*
G01*
X7953040Y4178143D03*
G01*
X8080023Y4180359D03*
D25*
G01*
X8207002Y4182576D03*
D23*
G01*
X8333983Y4184793D03*
G01*
X8460964Y4187009D03*
G01*
X8587944Y4189225D03*
G01*
X8714925Y4191441D03*
D25*
G01*
X8841906Y4193658D03*
D23*
G01*
X8968886Y4195875D03*
D29*
G01*
X8153749Y5226773D03*
D30*
G01*
X1921179Y1611248D03*
G01*
X1914220Y1411351D03*
D31*
G01*
X4303699Y1231900D03*
D30*
G01*
X4103700Y1231900D03*
D32*
G01*
X2349500Y219887D03*
G01*
X2349500Y719886D03*
G01*
X4279900Y1947087D03*
D31*
G01*
X4279900Y2447086D03*
D33*
G01*
X1663700Y558800D03*
G01*
X1155700Y558800D03*
D34*
G01*
X4038600Y3340100D03*
D35*
G01*
X4038600Y3213100D03*
G01*
X4038600Y3086100D03*
D36*
G01*
X2132406Y4264152D03*
G01*
X712393Y4864100D03*
G01*
X912393Y5464098D03*
G01*
X912393Y4264101D03*
G01*
X2132406Y5464047D03*
D37*
G01*
X1968500Y3022600D03*
G01*
X1460500Y3022600D03*
D38*
G01*
X952500Y3022600D03*
D39*
G01*
X3276600Y3644900D03*
G01*
X8343900Y2603500D03*
G01*
X6311900Y3416300D03*
G01*
X7789621Y2159000D03*
G01*
X4292600Y3873500D03*
G01*
X1729994Y5537200D03*
G01*
X8153755Y5226761D03*
M02*
