G04 Layer: TopSilkscreenLayer*
G04 EasyEDA v6.5.51, 2026-08-01 21:54:34*
G04 bf9654bf3ab140a8a438daaae0dfc385,572ffd485b9a42f4b5fb8ca6a2840e3c,10*
G04 Gerber Generator version 0.2*
G04 Scale: 100 percent, Rotated: No, Reflected: No *
G04 Dimensions in millimeters *
G04 leading zeros omitted , absolute positions ,4 integer and 5 decimal *
%FSLAX45Y45*%
%MOMM*%

%ADD10C,0.1524*%
%ADD11C,0.1500*%
%ADD12C,0.2540*%
%ADD13C,0.3000*%
%ADD14C,0.0159*%

%LPD*%
D10*
X2197087Y1884553D02*
G01*
X2186492Y1879589D01*
X2175723Y1869541D01*
X2170290Y1859567D01*
X2169566Y1838749D01*
X2174280Y1828167D01*
X2184323Y1817395D01*
X2194544Y1811703D01*
X2210107Y1806074D01*
X2235997Y1805170D01*
X2251659Y1809706D01*
X2262253Y1814675D01*
X2273025Y1824718D01*
X2278463Y1834946D01*
X2279190Y1855762D01*
X2274470Y1866094D01*
X2264425Y1876866D01*
X2254201Y1882561D01*
X2193208Y1919000D02*
G01*
X2188240Y1929594D01*
X2173295Y1945619D01*
X2282195Y1941817D01*
D11*
X1791543Y1443017D02*
G01*
X1824034Y1441881D01*
X1807222Y1426204D02*
G01*
X1808365Y1458948D01*
D10*
X4281677Y1613407D02*
G01*
X4276343Y1623821D01*
X4265929Y1634236D01*
X4255770Y1639315D01*
X4234941Y1639315D01*
X4224527Y1634236D01*
X4214113Y1623821D01*
X4208779Y1613407D01*
X4203700Y1597660D01*
X4203700Y1571752D01*
X4208779Y1556257D01*
X4214113Y1545844D01*
X4224527Y1535429D01*
X4234941Y1530350D01*
X4255770Y1530350D01*
X4265929Y1535429D01*
X4276343Y1545844D01*
X4281677Y1556257D01*
X4326381Y1639315D02*
G01*
X4383531Y1639315D01*
X4352290Y1597660D01*
X4367784Y1597660D01*
X4378197Y1592579D01*
X4383531Y1587500D01*
X4388611Y1571752D01*
X4388611Y1561337D01*
X4383531Y1545844D01*
X4373118Y1535429D01*
X4357370Y1530350D01*
X4341875Y1530350D01*
X4326381Y1535429D01*
X4321047Y1540510D01*
X4315968Y1550923D01*
D11*
X4131056Y1355597D02*
G01*
X4131056Y1323086D01*
X4114800Y1339342D02*
G01*
X4147565Y1339342D01*
D10*
X2056891Y522465D02*
G01*
X2046477Y517131D01*
X2036063Y506717D01*
X2030984Y496557D01*
X2030984Y475729D01*
X2036063Y465315D01*
X2046477Y454901D01*
X2056891Y449567D01*
X2072640Y444487D01*
X2098547Y444487D01*
X2114041Y449567D01*
X2124456Y454901D01*
X2134870Y465315D01*
X2139950Y475729D01*
X2139950Y496557D01*
X2134870Y506717D01*
X2124456Y517131D01*
X2114041Y522465D01*
X2056891Y561835D02*
G01*
X2051811Y561835D01*
X2041397Y567169D01*
X2036063Y572249D01*
X2030984Y582663D01*
X2030984Y603491D01*
X2036063Y613905D01*
X2041397Y618985D01*
X2051811Y624319D01*
X2062225Y624319D01*
X2072640Y618985D01*
X2088134Y608571D01*
X2139950Y556755D01*
X2139950Y629399D01*
X3987291Y2249665D02*
G01*
X3976877Y2244331D01*
X3966463Y2233917D01*
X3961384Y2223757D01*
X3961384Y2202929D01*
X3966463Y2192515D01*
X3976877Y2182101D01*
X3987291Y2176767D01*
X4003040Y2171687D01*
X4028947Y2171687D01*
X4044441Y2176767D01*
X4054856Y2182101D01*
X4065270Y2192515D01*
X4070350Y2202929D01*
X4070350Y2223757D01*
X4065270Y2233917D01*
X4054856Y2244331D01*
X4044441Y2249665D01*
X3961384Y2335771D02*
G01*
X4034027Y2283955D01*
X4034027Y2361933D01*
X3961384Y2335771D02*
G01*
X4070350Y2335771D01*
X1462278Y1054607D02*
G01*
X1456944Y1065021D01*
X1446529Y1075436D01*
X1436370Y1080515D01*
X1415542Y1080515D01*
X1405128Y1075436D01*
X1394713Y1065021D01*
X1389379Y1054607D01*
X1384300Y1038860D01*
X1384300Y1012952D01*
X1389379Y997457D01*
X1394713Y987044D01*
X1405128Y976629D01*
X1415542Y971550D01*
X1436370Y971550D01*
X1446529Y976629D01*
X1456944Y987044D01*
X1462278Y997457D01*
X1496568Y1080515D02*
G01*
X1496568Y971550D01*
X1496568Y1080515D02*
G01*
X1569212Y971550D01*
X1569212Y1080515D02*
G01*
X1569212Y971550D01*
X1603502Y1059687D02*
G01*
X1613915Y1065021D01*
X1629410Y1080515D01*
X1629410Y971550D01*
X2999143Y4003014D02*
G01*
X2999143Y3894048D01*
X2999143Y4003014D02*
G01*
X3035465Y4003014D01*
X3051213Y3997934D01*
X3061373Y3987520D01*
X3066707Y3977106D01*
X3071787Y3961358D01*
X3071787Y3935450D01*
X3066707Y3919956D01*
X3061373Y3909542D01*
X3051213Y3899128D01*
X3035465Y3894048D01*
X2999143Y3894048D01*
X3106077Y3982186D02*
G01*
X3116491Y3987520D01*
X3132239Y4003014D01*
X3132239Y3894048D01*
X3612794Y3234944D02*
G01*
X3617874Y3224529D01*
X3628288Y3214115D01*
X3638702Y3208781D01*
X3654450Y3203702D01*
X3680358Y3203702D01*
X3695852Y3208781D01*
X3706266Y3214115D01*
X3716680Y3224529D01*
X3721760Y3234944D01*
X3721760Y3255771D01*
X3716680Y3265931D01*
X3706266Y3276345D01*
X3695852Y3281679D01*
X3680358Y3286760D01*
X3654450Y3286760D01*
X3638702Y3281679D01*
X3628288Y3276345D01*
X3617874Y3265931D01*
X3612794Y3255771D01*
X3612794Y3234944D01*
X3701186Y3250437D02*
G01*
X3732174Y3281679D01*
X3633622Y3321050D02*
G01*
X3628288Y3331463D01*
X3612794Y3347212D01*
X3721760Y3347212D01*
X7937500Y2426715D02*
G01*
X7937500Y2317750D01*
X7937500Y2426715D02*
G01*
X7984236Y2426715D01*
X7999729Y2421636D01*
X8005063Y2416302D01*
X8010143Y2405887D01*
X8010143Y2395473D01*
X8005063Y2385060D01*
X7999729Y2379979D01*
X7984236Y2374900D01*
X7937500Y2374900D01*
X7973822Y2374900D02*
G01*
X8010143Y2317750D01*
X8044434Y2405887D02*
G01*
X8054847Y2411221D01*
X8070595Y2426715D01*
X8070595Y2317750D01*
X6044184Y3657600D02*
G01*
X6153150Y3657600D01*
X6044184Y3657600D02*
G01*
X6044184Y3704336D01*
X6049263Y3719829D01*
X6054597Y3725163D01*
X6065011Y3730244D01*
X6075425Y3730244D01*
X6085840Y3725163D01*
X6090920Y3719829D01*
X6096000Y3704336D01*
X6096000Y3657600D01*
X6096000Y3693921D02*
G01*
X6153150Y3730244D01*
X6070091Y3769868D02*
G01*
X6065011Y3769868D01*
X6054597Y3774947D01*
X6049263Y3780281D01*
X6044184Y3790695D01*
X6044184Y3811270D01*
X6049263Y3821684D01*
X6054597Y3827018D01*
X6065011Y3832097D01*
X6075425Y3832097D01*
X6085840Y3827018D01*
X6101334Y3816604D01*
X6153150Y3764534D01*
X6153150Y3837431D01*
X4547615Y3987800D02*
G01*
X4438650Y3987800D01*
X4547615Y3987800D02*
G01*
X4547615Y3941063D01*
X4542536Y3925570D01*
X4537202Y3920236D01*
X4526788Y3915155D01*
X4516374Y3915155D01*
X4505959Y3920236D01*
X4500879Y3925570D01*
X4495800Y3941063D01*
X4495800Y3987800D01*
X4495800Y3951478D02*
G01*
X4438650Y3915155D01*
X4547615Y3870452D02*
G01*
X4547615Y3813302D01*
X4505959Y3844289D01*
X4505959Y3828795D01*
X4500879Y3818381D01*
X4495800Y3813302D01*
X4480052Y3807968D01*
X4469638Y3807968D01*
X4454143Y3813302D01*
X4443729Y3823715D01*
X4438650Y3839210D01*
X4438650Y3854704D01*
X4443729Y3870452D01*
X4448809Y3875531D01*
X4459224Y3880865D01*
X1499743Y5766815D02*
G01*
X1499743Y5657850D01*
X1499743Y5766815D02*
G01*
X1546479Y5766815D01*
X1561972Y5761736D01*
X1567306Y5756402D01*
X1572387Y5745987D01*
X1572387Y5735573D01*
X1567306Y5725160D01*
X1561972Y5720079D01*
X1546479Y5715000D01*
X1499743Y5715000D01*
X1536064Y5715000D02*
G01*
X1572387Y5657850D01*
X1606677Y5766815D02*
G01*
X1606677Y5657850D01*
X1606677Y5657850D02*
G01*
X1669161Y5657850D01*
X1703451Y5766815D02*
G01*
X1744853Y5715000D01*
X1744853Y5657850D01*
X1786509Y5766815D02*
G01*
X1744853Y5715000D01*
X1820798Y5745987D02*
G01*
X1831212Y5751321D01*
X1846706Y5766815D01*
X1846706Y5657850D01*
X8585009Y3769715D02*
G01*
X8585009Y3691737D01*
X8590089Y3676243D01*
X8600503Y3665829D01*
X8616251Y3660749D01*
X8626665Y3660749D01*
X8642159Y3665829D01*
X8652573Y3676243D01*
X8657653Y3691737D01*
X8657653Y3769715D01*
X8691943Y3748887D02*
G01*
X8702357Y3754221D01*
X8718105Y3769715D01*
X8718105Y3660749D01*
X8610409Y2868015D02*
G01*
X8610409Y2790037D01*
X8615489Y2774543D01*
X8625903Y2764129D01*
X8641651Y2759049D01*
X8652065Y2759049D01*
X8667559Y2764129D01*
X8677973Y2774543D01*
X8683053Y2790037D01*
X8683053Y2868015D01*
X8722677Y2842107D02*
G01*
X8722677Y2847187D01*
X8727757Y2857601D01*
X8733091Y2862935D01*
X8743505Y2868015D01*
X8764079Y2868015D01*
X8774493Y2862935D01*
X8779827Y2857601D01*
X8784907Y2847187D01*
X8784907Y2836773D01*
X8779827Y2826359D01*
X8769413Y2810865D01*
X8717343Y2759049D01*
X8790241Y2759049D01*
X1435100Y3366515D02*
G01*
X1435100Y3288537D01*
X1440179Y3273044D01*
X1450594Y3262629D01*
X1466342Y3257550D01*
X1476755Y3257550D01*
X1492250Y3262629D01*
X1502663Y3273044D01*
X1507744Y3288537D01*
X1507744Y3366515D01*
X1552447Y3366515D02*
G01*
X1609597Y3366515D01*
X1578610Y3324860D01*
X1594104Y3324860D01*
X1604518Y3319779D01*
X1609597Y3314700D01*
X1614931Y3298952D01*
X1614931Y3288537D01*
X1609597Y3273044D01*
X1599184Y3262629D01*
X1583689Y3257550D01*
X1568195Y3257550D01*
X1552447Y3262629D01*
X1547368Y3267710D01*
X1542034Y3278123D01*
X2943702Y1129284D02*
G01*
X2943702Y1207262D01*
X2938622Y1222755D01*
X2928208Y1233170D01*
X2912460Y1238250D01*
X2902046Y1238250D01*
X2886552Y1233170D01*
X2876138Y1222755D01*
X2871058Y1207262D01*
X2871058Y1129284D01*
X2784698Y1129284D02*
G01*
X2836768Y1201928D01*
X2758790Y1201928D01*
X2784698Y1129284D02*
G01*
X2784698Y1238250D01*
X4524816Y3326381D02*
G01*
X4602794Y3326381D01*
X4618288Y3331461D01*
X4628702Y3341875D01*
X4633782Y3357623D01*
X4633782Y3368037D01*
X4628702Y3383531D01*
X4618288Y3393945D01*
X4602794Y3399025D01*
X4524816Y3399025D01*
X4540310Y3495799D02*
G01*
X4529896Y3490465D01*
X4524816Y3474971D01*
X4524816Y3464557D01*
X4529896Y3449063D01*
X4545644Y3438649D01*
X4571552Y3433315D01*
X4597460Y3433315D01*
X4618288Y3438649D01*
X4628702Y3449063D01*
X4633782Y3464557D01*
X4633782Y3469891D01*
X4628702Y3485385D01*
X4618288Y3495799D01*
X4602794Y3500879D01*
X4597460Y3500879D01*
X4581966Y3495799D01*
X4571552Y3485385D01*
X4566472Y3469891D01*
X4566472Y3464557D01*
X4571552Y3449063D01*
X4581966Y3438649D01*
X4597460Y3433315D01*
X8418725Y3928457D02*
G01*
X8417364Y4006423D01*
X8412015Y4021828D01*
X8401420Y4032056D01*
X8385586Y4036862D01*
X8375175Y4036679D01*
X8359772Y4031330D01*
X8349541Y4020736D01*
X8344733Y4005155D01*
X8346094Y3927190D01*
X8243620Y3961729D02*
G01*
X8248429Y3977309D01*
X8258660Y3987904D01*
X8274060Y3993507D01*
X8279391Y3993601D01*
X8294977Y3988536D01*
X8305571Y3978308D01*
X8311174Y3962907D01*
X8311263Y3957828D01*
X8306206Y3941991D01*
X8295975Y3931396D01*
X8280572Y3926047D01*
X8275238Y3925953D01*
X8259658Y3930761D01*
X8249064Y3940992D01*
X8243620Y3961729D01*
X8243168Y3987632D01*
X8247791Y4013880D01*
X8257933Y4029552D01*
X8273336Y4034904D01*
X8283750Y4035084D01*
X8299584Y4030281D01*
X8304844Y4019956D01*
G36*
X4735423Y2995015D02*
G01*
X4729124Y2994406D01*
X4723028Y2992983D01*
X4717135Y2990799D01*
X4711547Y2987852D01*
X4706416Y2984195D01*
X4701794Y2979978D01*
X4697780Y2975152D01*
X4694377Y2969818D01*
X4691684Y2964129D01*
X4689805Y2958134D01*
X4688687Y2951937D01*
X4688382Y2945688D01*
X4688840Y2939389D01*
X4690160Y2933242D01*
X4692243Y2927299D01*
X4695088Y2921711D01*
X4698644Y2916529D01*
X4702810Y2911805D01*
X4707585Y2907690D01*
X4712817Y2904236D01*
X4715560Y2902712D01*
X4721402Y2900324D01*
X4727448Y2898698D01*
X4733696Y2897886D01*
X4737100Y2897784D01*
X4743399Y2898190D01*
X4749546Y2899410D01*
X4755489Y2901442D01*
X4758385Y2902712D01*
X4763820Y2905861D01*
X4768850Y2909671D01*
X4773320Y2914091D01*
X4777181Y2919069D01*
X4780381Y2924454D01*
X4782820Y2930245D01*
X4784547Y2936290D01*
X4785461Y2942539D01*
X4785563Y2948838D01*
X4784801Y2955086D01*
X4783277Y2961182D01*
X4782261Y2964129D01*
X4779568Y2969818D01*
X4776216Y2975152D01*
X4772152Y2979978D01*
X4767529Y2984195D01*
X4762398Y2987852D01*
X4756810Y2990799D01*
X4750917Y2992983D01*
X4744821Y2994406D01*
X4738573Y2995015D01*
G37*
D12*
X2174496Y109890D02*
G01*
X2174499Y829884D01*
X2174496Y829884D02*
G01*
X2524500Y829884D01*
X2524503Y829884D02*
G01*
X2524500Y109890D01*
X2524503Y109890D02*
G01*
X2174499Y109890D01*
X4104896Y1837090D02*
G01*
X4104899Y2557084D01*
X4104896Y2557084D02*
G01*
X4454900Y2557084D01*
X4454903Y2557084D02*
G01*
X4454900Y1837090D01*
X4454903Y1837090D02*
G01*
X4104899Y1837090D01*
X917135Y83820D02*
G01*
X801700Y83820D01*
X915319Y183796D02*
G01*
X801700Y183796D01*
X1913128Y83820D02*
G01*
X2017699Y83820D01*
X1917700Y183796D02*
G01*
X2017699Y183796D01*
X1917700Y933803D02*
G01*
X2017699Y933803D01*
X1917700Y812800D02*
G01*
X2017699Y812800D01*
X901700Y813821D02*
G01*
X801700Y813821D01*
X901700Y933803D02*
G01*
X801700Y933803D01*
X2017699Y933803D02*
G01*
X2017699Y83802D01*
X801700Y933803D02*
G01*
X801700Y83802D01*
X901700Y83820D02*
G01*
X1913128Y83820D01*
X1917700Y83820D01*
X901700Y933803D02*
G01*
X1917700Y933803D01*
X901700Y183796D02*
G01*
X1917700Y183796D01*
X901700Y813821D02*
G01*
X1016000Y813821D01*
X1295400Y812800D02*
G01*
X1524000Y812800D01*
X1803400Y812800D02*
G01*
X1917700Y812800D01*
X2754635Y3820411D02*
G01*
X2766311Y3820411D01*
X2768600Y3822700D01*
X2768600Y3835387D01*
X2754635Y3848092D01*
X2781305Y3848092D01*
X2754635Y3520193D02*
G01*
X2766306Y3520193D01*
X2768600Y3517900D01*
X2768600Y3492492D01*
X2733641Y3520193D02*
G01*
X2754635Y3520193D01*
X3276597Y3527178D02*
G01*
X3276597Y3492492D01*
X3238505Y3492492D01*
X3276597Y3822692D02*
G01*
X3276597Y3813406D01*
X2781211Y3848074D02*
G01*
X3238411Y3848074D01*
X3238411Y3848074D01*
X3276597Y3848092D01*
X3276597Y3822692D01*
X2754635Y3520193D02*
G01*
X2754635Y3492505D01*
X3238505Y3492492D02*
G01*
X2754726Y3492492D01*
X2733641Y3520193D02*
G01*
X2733641Y3492505D01*
X2754726Y3492505D01*
X2781305Y3848092D02*
G01*
X2754635Y3848092D01*
X2754635Y3820411D02*
G01*
X2754635Y3835392D01*
X2754635Y3848092D02*
G01*
X2733636Y3848092D01*
X2733636Y3820411D01*
X2733636Y3820411D02*
G01*
X2754635Y3820411D01*
X3060705Y3771892D02*
G01*
X3060705Y3568692D01*
X2895605Y3670292D02*
G01*
X3124205Y3670292D01*
X2959110Y3771897D02*
G01*
X2959105Y3568692D01*
X3060722Y3771905D02*
G01*
X2959122Y3670305D01*
X3060722Y3568705D01*
X4169097Y3015043D02*
G01*
X4169097Y3399094D01*
D10*
X8032620Y2051090D02*
G01*
X8168612Y2051090D01*
X8168612Y2266909D01*
X8032620Y2266909D01*
X7842379Y2051090D02*
G01*
X7706387Y2051090D01*
X7706387Y2266909D01*
X7842379Y2266909D01*
X6419809Y3663820D02*
G01*
X6419809Y3799812D01*
X6203990Y3799812D01*
X6203990Y3663820D01*
X6419809Y3473579D02*
G01*
X6419809Y3337587D01*
X6203990Y3337587D01*
X6203990Y3473579D01*
X4171990Y3892679D02*
G01*
X4171990Y3756687D01*
X4387809Y3756687D01*
X4387809Y3892679D01*
X4171990Y4082920D02*
G01*
X4171990Y4218912D01*
X4387809Y4218912D01*
X4387809Y4082920D01*
D13*
X1193200Y4969184D02*
G01*
X1193200Y5464098D01*
X1193200Y4264101D02*
G01*
X1193200Y4758974D01*
X1193200Y4264103D02*
G01*
X1091412Y4264101D01*
X1193200Y5464096D02*
G01*
X1091412Y5464098D01*
X2139238Y4438395D02*
G01*
X2139238Y4832857D01*
X2037410Y4934204D02*
G01*
X2202459Y5094986D01*
X719226Y5044099D02*
G01*
X719226Y5236819D01*
X1582826Y5236819D01*
X1582826Y4936820D01*
X1585239Y4934404D01*
X1986838Y4934404D01*
X2037638Y4934404D01*
D12*
X2472509Y4084101D02*
G01*
X552498Y4084101D01*
X2472496Y5644103D02*
G01*
X552485Y5644103D01*
X2472499Y4084099D02*
G01*
X2472499Y5644100D01*
X2132329Y5288787D02*
G01*
X2132329Y5066029D01*
X552485Y5644103D02*
G01*
X552485Y4893569D01*
X552485Y4834630D02*
G01*
X552485Y4084101D01*
X1044905Y4964099D02*
G01*
X1344904Y4964099D01*
X1344904Y4764100D01*
X1044905Y4764100D01*
X1044905Y4964099D01*
X8257720Y3079081D02*
G01*
X8235602Y3101200D01*
X8235602Y3401199D01*
X8257722Y3423320D01*
X8920599Y2901200D02*
G01*
X8300600Y2901200D01*
X8300600Y2923087D01*
X8920599Y2901200D02*
G01*
X8920599Y2923087D01*
X8963479Y3423320D02*
G01*
X8985600Y3401199D01*
X8985600Y3101200D01*
X8963482Y3079081D01*
X8300600Y3601199D02*
G01*
X8920599Y3601199D01*
X8920599Y3579314D01*
X8283120Y2177381D02*
G01*
X8261002Y2199500D01*
X8261002Y2499499D01*
X8283122Y2521620D01*
X8945999Y1999500D02*
G01*
X8326000Y1999500D01*
X8326000Y2021387D01*
X8945999Y1999500D02*
G01*
X8945999Y2021387D01*
X8988879Y2521620D02*
G01*
X9011000Y2499499D01*
X9011000Y2199500D01*
X8988882Y2177381D01*
X8326000Y2699499D02*
G01*
X8945999Y2699499D01*
X8945999Y2677614D01*
X2262497Y3222599D02*
G01*
X2262497Y2022604D01*
X658502Y3222599D02*
G01*
X2262497Y3222599D01*
X658502Y2161273D02*
G01*
X2262497Y2161273D01*
X658502Y2022604D02*
G01*
X2262497Y2022604D01*
X658502Y3222599D02*
G01*
X658502Y2022604D01*
D10*
X3116242Y1958220D02*
G01*
X3116242Y1292979D01*
X2821962Y1292979D01*
X2821962Y1958220D01*
X3116242Y1958220D01*
D12*
X4835913Y3022597D02*
G01*
X4835913Y3672586D01*
X5295905Y3672586D02*
G01*
X5295905Y3022597D01*
X4835913Y3672586D02*
G01*
X5295905Y3672586D01*
X5295905Y3022597D02*
G01*
X4835913Y3022597D01*
X7151019Y4424558D02*
G01*
X7155591Y4162513D01*
X7250066Y4164162D01*
X7218591Y5967288D02*
G01*
X7124118Y5965639D01*
X7128692Y5703592D01*
X9051721Y5999286D02*
G01*
X9005547Y5998479D01*
X9037020Y4195353D02*
G01*
X9083194Y4196161D01*
X9051721Y5999286D01*
X9710775Y4208810D02*
G01*
X9080875Y4197814D01*
X9049461Y5997536D01*
X9679363Y6008532D01*
X9710775Y4208810D01*
G75*
G01*
X1016000Y813821D02*
G02*
X1295400Y812800I139091J-167173D01*
G75*
G01*
X1523997Y813562D02*
G02*
X1803397Y812541I139091J-167173D01*
G75*
G01*
X4168082Y3400110D02*
G03*
X4168082Y3014030I-145630J-193040D01*
G75*
G01
X2167712Y1511300D02*
G03X2167712Y1511300I-250012J0D01*
G75*
G01
X4453712Y1231900D02*
G03X4453712Y1231900I-250012J0D01*
G75*
G01
X712419Y4184091D02*
G03X712419Y4184091I-50013J0D01*
G75*
G01
X8685632Y3251200D02*
G03X8685632Y3251200I-75006J0D01*
G75*
G01
X8711032Y2349500D02*
G03X8711032Y2349500I-75006J0D01*
M02*
