G04 Layer: TopSolderMaskLayer*
G04 EasyEDA v6.5.51, 2026-08-01 21:54:34*
G04 bf9654bf3ab140a8a438daaae0dfc385,572ffd485b9a42f4b5fb8ca6a2840e3c,10*
G04 Gerber Generator version 0.2*
G04 Scale: 100 percent, Rotated: No, Reflected: No *
G04 Dimensions in millimeters *
G04 leading zeros omitted , absolute positions ,4 integer and 5 decimal *
%FSLAX45Y45*%
%MOMM*%

%AMMACRO1*4,1,8,-1.021,-1.2508,-1.0508,-1.221,-1.0508,1.2211,-1.021,1.2508,1.021,1.2508,1.0508,1.2211,1.0508,-1.221,1.021,-1.2508,-1.021,-1.2508,0*%
%AMMACRO2*4,1,8,-0.771,-0.5858,-0.8008,-0.556,-0.8008,0.5561,-0.771,0.5858,0.771,0.5858,0.8008,0.5561,0.8008,-0.556,0.771,-0.5858,-0.771,-0.5858,0*%
%AMMACRO3*4,1,8,-0.6248,-0.9013,-0.6546,-0.8715,-0.6546,0.8716,-0.6248,0.9013,0.6248,0.9013,0.6546,0.8716,0.6546,-0.8715,0.6248,-0.9013,-0.6248,-0.9013,0*%
%AMMACRO4*4,1,8,-0.8716,-0.6546,-0.9013,-0.6248,-0.9013,0.6248,-0.8716,0.6546,0.8715,0.6546,0.9013,0.6248,0.9013,-0.6248,0.8715,-0.6546,-0.8716,-0.6546,0*%
%AMMACRO5*4,1,8,-0.8716,-0.5508,-0.9013,-0.521,-0.9013,0.5211,-0.8716,0.5508,0.8715,0.5508,0.9013,0.5211,0.9013,-0.521,0.8715,-0.5508,-0.8716,-0.5508,0*%
%AMMACRO6*4,1,8,-0.5207,-0.6,-0.55,-0.5707,-0.55,0.5707,-0.5207,0.6,0.5207,0.6,0.55,0.5707,0.55,-0.5707,0.5207,-0.6,-0.5207,-0.6,0*%
%AMMACRO7*4,1,8,-1.2711,-1.3008,-1.3008,-1.271,-1.3008,1.2711,-1.2711,1.3008,1.271,1.3008,1.3008,1.2711,1.3008,-1.271,1.271,-1.3008,-1.2711,-1.3008,0*%
%AMMACRO8*4,1,8,-1.2711,-0.6008,-1.3008,-0.571,-1.3008,0.5711,-1.2711,0.6008,1.271,0.6008,1.3008,0.5711,1.3008,-0.571,1.271,-0.6008,-1.2711,-0.6008,0*%
%AMMACRO9*4,1,8,-0.5211,-0.6008,-0.5508,-0.571,-0.5508,0.5711,-0.5211,0.6008,0.521,0.6008,0.5508,0.5711,0.5508,-0.571,0.521,-0.6008,-0.5211,-0.6008,0*%
%AMMACRO10*4,1,8,-1.1911,-1.8508,-1.2208,-1.821,-1.2208,1.8211,-1.1911,1.8508,1.191,1.8508,1.2208,1.8211,1.2208,-1.821,1.191,-1.8508,-1.1911,-1.8508,0*%
%AMMACRO11*4,1,8,-0.9211,-1.0508,-0.9508,-1.021,-0.9508,1.0211,-0.9211,1.0508,0.921,1.0508,0.9508,1.0211,0.9508,-1.021,0.921,-1.0508,-0.9211,-1.0508,0*%
%AMMACRO12*4,1,8,-0.4768,-1.1093,-0.507,-1.0801,-0.5444,1.0617,-0.5152,1.092,0.4768,1.1093,0.507,1.0801,0.5444,-1.0617,0.5152,-1.092,-0.4768,-1.1093,0*%
%AMMACRO13*4,1,8,-0.5018,-1.1097,-0.532,-1.0805,-0.5694,1.0613,-0.5402,1.0916,0.5018,1.1097,0.532,1.0805,0.5694,-1.0613,0.5402,-1.0916,-0.5018,-1.1097,0*%
%AMMACRO14*4,1,8,-0.4768,-1.1093,-0.507,-1.0801,-0.5444,1.0617,-0.5152,1.092,0.4768,1.1093,0.5071,1.0801,0.5444,-1.0617,0.5152,-1.092,-0.4768,-1.1093,0*%
%AMMACRO15*4,1,8,-1.0617,-0.5444,-1.092,-0.5152,-1.1093,0.4768,-1.0801,0.507,1.0617,0.5444,1.092,0.5152,1.1093,-0.4768,1.0801,-0.507,-1.0617,-0.5444,0*%
%AMMACRO16*4,1,8,-1.0617,-0.5444,-1.092,-0.5152,-1.1093,0.4768,-1.0801,0.507,1.0617,0.5444,1.092,0.5152,1.1093,-0.4768,1.0801,-0.5071,-1.0617,-0.5444,0*%
%AMMACRO17*4,1,8,-0.4768,-1.1093,-0.5071,-1.0801,-0.5444,1.0617,-0.5152,1.092,0.4768,1.1093,0.507,1.0801,0.5444,-1.0617,0.5152,-1.092,-0.4768,-1.1093,0*%
%AMMACRO18*4,1,8,-2.4761,-2.5944,-2.5064,-2.5652,-2.5944,2.4762,-2.5652,2.5064,2.4761,2.5944,2.5064,2.5652,2.5944,-2.4762,2.5652,-2.5064,-2.4761,-2.5944,0*%
%ADD10C,1.2000*%
%ADD11C,1.1000*%
%ADD12C,1.6256*%
%ADD13C,1.1016*%
%ADD14C,2.7016*%
%ADD15MACRO1*%
%ADD16MACRO2*%
%ADD17O,1.601597X1.1716*%
%ADD18MACRO3*%
%ADD19C,0.0132*%
%ADD20MACRO4*%
%ADD21MACRO5*%
%ADD22C,2.8956*%
%ADD23MACRO6*%
%ADD24C,2.6016*%
%ADD25MACRO7*%
%ADD26MACRO8*%
%ADD27MACRO9*%
%ADD28MACRO10*%
%ADD29MACRO11*%
%ADD30MACRO12*%
%ADD31MACRO13*%
%ADD32MACRO14*%
%ADD33MACRO15*%
%ADD34MACRO16*%
%ADD35MACRO17*%
%ADD36MACRO18*%

%LPD*%
D10*
G01*
X1921179Y1611248D03*
G01*
X1914220Y1411351D03*
D11*
G01*
X4303699Y1231900D03*
D10*
G01*
X4103700Y1231900D03*
D12*
G01*
X2349500Y219887D03*
G01*
X2349500Y719886D03*
G01*
X4279900Y1947087D03*
D13*
G01*
X4279900Y2447086D03*
D14*
G01*
X1663700Y558800D03*
G01*
X1155700Y558800D03*
D15*
G01*
X3249895Y3670292D03*
G01*
X2769911Y3670292D03*
D16*
G01*
X4038607Y3340089D03*
D17*
G01*
X4038600Y3213100D03*
G01*
X4038600Y3086100D03*
D18*
G01*
X8085376Y2159000D03*
G01*
X7789623Y2159000D03*
D20*
G01*
X6311900Y3716576D03*
G01*
X6311900Y3420823D03*
G01*
X4279900Y3839923D03*
D21*
G01*
X4279900Y4135678D03*
D22*
G01*
X2132406Y4264152D03*
G01*
X712393Y4864100D03*
G01*
X912393Y5464098D03*
G01*
X912393Y4264101D03*
G01*
X2132406Y5464047D03*
D23*
G01*
X8310601Y3501199D03*
G01*
X8910600Y3501199D03*
G01*
X8310601Y3001200D03*
G01*
X8910600Y3001200D03*
G01*
X8336001Y2599499D03*
G01*
X8936000Y2599499D03*
G01*
X8336001Y2099500D03*
G01*
X8936000Y2099500D03*
D24*
G01*
X1968500Y3022600D03*
G01*
X1460500Y3022600D03*
D25*
G01*
X952501Y3022598D03*
D26*
G01*
X2662106Y1855597D03*
D27*
G01*
X2662118Y1625598D03*
D26*
G01*
X2662106Y1395602D03*
D28*
G01*
X3256102Y1625600D03*
D29*
G01*
X4940305Y3850098D03*
G01*
X5194305Y3850098D03*
G01*
X5194305Y2830098D03*
G01*
X4940305Y2830098D03*
D30*
G01*
X8937472Y5995572D03*
D31*
G01*
X8810484Y5993367D03*
D30*
G01*
X8683510Y5991139D03*
G01*
X8556529Y5988923D03*
G01*
X8429548Y5986707D03*
G01*
X8302569Y5984490D03*
D32*
G01*
X8175586Y5982275D03*
D30*
G01*
X8048607Y5980057D03*
G01*
X7921626Y5977841D03*
G01*
X7794645Y5975625D03*
G01*
X7667665Y5973408D03*
G01*
X7540684Y5971192D03*
G01*
X7413703Y5968975D03*
G01*
X7286724Y5966758D03*
D33*
G01*
X7140456Y5635670D03*
G01*
X7142674Y5508689D03*
G01*
X7144890Y5381708D03*
G01*
X7147106Y5254729D03*
G01*
X7149324Y5127748D03*
G01*
X7151565Y5000767D03*
G01*
X7153781Y4873787D03*
G01*
X7155999Y4746806D03*
G01*
X7158214Y4619825D03*
D34*
G01*
X7160431Y4492845D03*
D32*
G01*
X7318136Y4167061D03*
D30*
G01*
X7445118Y4169279D03*
G01*
X7572098Y4171495D03*
G01*
X7699079Y4173711D03*
G01*
X7826060Y4175928D03*
G01*
X7953039Y4178143D03*
D35*
G01*
X8080021Y4180361D03*
D30*
G01*
X8207001Y4182578D03*
G01*
X8333982Y4184793D03*
G01*
X8460963Y4187010D03*
G01*
X8587943Y4189227D03*
G01*
X8714924Y4191443D03*
G01*
X8841905Y4193660D03*
D32*
G01*
X8968884Y4195875D03*
D36*
G01*
X8153747Y5226775D03*
M02*
